<?xml version="1.0" encoding="UTF-8" standalone="no"?>
<svg width="45px" height="45px" viewBox="0 0 45 45" version="1.1" xmlns="http://www.w3.org/2000/svg" xmlns:xlink="http://www.w3.org/1999/xlink">
    <!-- Generator: Sketch 3.7.2 (28276) - http://www.bohemiancoding.com/sketch -->
    <title>ORTEC emblem@2x</title>
    <desc>Created with Sketch.</desc>
    <defs>
        <polyline id="path-1" points="0 42.2727273 42.2416029 42.2727273 42.2416029 0.0285962567 0 0.0285962567"></polyline>
    </defs>
    <g id="Page-3" stroke="none" stroke-width="1" fill="none" fill-rule="evenodd">
        <g id="Data-6" transform="translate(-1015.000000, -1286.000000)">
            <g id="ORTEC-emblem" transform="translate(1015.000000, 1286.000000)">
                <g id="Group-6">
                    <path d="M22.4857019,44.909138 C34.853863,44.909138 44.8810473,34.8819537 44.8810473,22.5137925 C44.8810473,10.1456313 34.853863,0.118447037 22.4857019,0.118447037 C10.1175407,0.118447037 0.0903563948,10.1456313 0.0903563948,22.5137925 C0.0903563948,34.8819537 10.1175407,44.909138 22.4857019,44.909138 Z M22.4857019,43.231641 C33.9274405,43.231641 43.2035504,33.9555312 43.2035504,22.5137925 C43.2035504,11.0720539 33.9274405,1.79594399 22.4857019,1.79594399 C11.0439632,1.79594399 1.76785335,11.0720539 1.76785335,22.5137925 C1.76785335,33.9555312 11.0439632,43.231641 22.4857019,43.231641 Z M22.4857019,41.6839993 C33.0727324,41.6839993 41.6559086,33.1008231 41.6559086,22.5137925 C41.6559086,11.9267619 33.0727324,3.34358575 22.4857019,3.34358575 C11.8986713,3.34358575 3.31549511,11.9267619 3.31549511,22.5137925 C3.31549511,33.1008231 11.8986713,41.6839993 22.4857019,41.6839993" id="Fill-1" fill="#FFFFFF"></path>
                    <g id="Group-5" transform="translate(1.363636, 1.363636)">
                        <mask id="mask-2" fill="white">
                            <use xlink:href="#path-1"></use>
                        </mask>
                        <g id="Clip-4"></g>
                    </g>
                </g>
                <polygon id="Fill-7" fill="#A90074" points="17.828988 27.168484 8.51556016 27.168484 8.51556016 17.8550561 17.828988 17.8550561"></polygon>
                <polygon id="Fill-8" fill="#002E67" points="27.1424158 27.168484 17.828988 27.168484 17.828988 17.8550561 27.1424158 17.8550561"></polygon>
                <polygon id="Fill-9" fill="#EE7D11" points="27.1424158 36.4819118 17.828988 36.4819118 17.828988 27.168484 27.1424158 27.168484"></polygon>
                <polygon id="Fill-10" fill="#009BC2" points="27.1424158 17.8575842 17.828988 17.8575842 17.828988 8.54415642 27.1424158 8.54415642"></polygon>
                <polygon id="Fill-11" fill="#97BF0D" points="36.4533155 27.168484 27.1398877 27.168484 27.1398877 17.8550561 36.4533155 17.8550561"></polygon>
            </g>
        </g>
    </g>
</svg>