<svg id="Layer_1" data-name="Layer 1" xmlns="http://www.w3.org/2000/svg" xmlns:xlink="http://www.w3.org/1999/xlink" viewBox="0 0 300 98.452">
  <defs>
    <style>
      .cls-1 {
        fill: url(#linear-gradient);
      }

      .cls-2 {
        fill: url(#linear-gradient-2);
      }

      .cls-3 {
        fill: url(#linear-gradient-3);
      }

      .cls-4 {
        fill: url(#linear-gradient-4);
      }

      .cls-5 {
        fill: url(#linear-gradient-5);
      }

      .cls-6 {
        fill: #fdfdfd;
      }

      .cls-7 {
        fill: #fff;
      }
    </style>
    <linearGradient id="linear-gradient" x1="258.974" y1="30.259" x2="260.169" y2="38.229" gradientUnits="userSpaceOnUse">
      <stop offset="0" stop-color="#f6cd00"/>
      <stop offset="1" stop-color="#f49a00"/>
    </linearGradient>
    <linearGradient id="linear-gradient-2" x1="234.886" y1="17.106" x2="189.723" y2="39.023" gradientUnits="userSpaceOnUse">
      <stop offset="0" stop-color="#261f5b"/>
      <stop offset="0.982" stop-color="#ba007f"/>
      <stop offset="1" stop-color="#ba007f"/>
    </linearGradient>
    <linearGradient id="linear-gradient-3" x1="260.614" y1="63.892" x2="282.795" y2="89.67" gradientUnits="userSpaceOnUse">
      <stop offset="0" stop-color="#e0df49"/>
      <stop offset="0.078" stop-color="#e0df49"/>
      <stop offset="1" stop-color="#a0aa1b"/>
    </linearGradient>
    <linearGradient id="linear-gradient-4" x1="234.451" y1="44.395" x2="245.642" y2="16.218" gradientUnits="userSpaceOnUse">
      <stop offset="0" stop-color="#e3002c"/>
      <stop offset="0.61" stop-color="#e4006f"/>
      <stop offset="1" stop-color="#ba007f"/>
    </linearGradient>
    <linearGradient id="linear-gradient-5" x1="258.569" y1="56.936" x2="300.012" y2="26.518" gradientUnits="userSpaceOnUse">
      <stop offset="0" stop-color="#008cd2"/>
      <stop offset="0.037" stop-color="#008cd2"/>
      <stop offset="0.988" stop-color="#261f5b"/>
      <stop offset="1" stop-color="#261f5b"/>
    </linearGradient>
  </defs>
  <title>abovo-media-alt</title>
  <g>
    <g>
      <polygon class="cls-1" points="226.51 7.556 272.872 58.658 288.838 35.632 226.51 7.556"/>
      <polygon class="cls-2" points="210.964 59.406 231.252 13.609 157.302 24.067 210.964 59.406"/>
      <polygon class="cls-3" points="282.543 98 278.869 66.553 233.44 50.864 282.543 98"/>
      <polygon class="cls-4" points="260.049 40.752 227.936 0 227.932 0 210.964 59.406 260.049 40.752"/>
      <polygon class="cls-5" points="298.624 25.777 298.624 25.777 233.44 50.864 278.869 66.553 298.624 25.777"/>
    </g>
    <rect class="cls-6" y="31.48" width="266.654" height="46.835"/>
    <rect y="31.48" width="266.654" height="46.835"/>
    <path class="cls-7" d="M10.648,63.079h.536a.9.9,0,0,0,1.039-.737l7.069-19.33h4.589l7.036,19.33a.9.9,0,0,0,1.038.737h.536V66.8H29.878c-1.675,0-2.278-.436-2.814-1.943L25.59,60.7h-8.04l-1.474,4.154c-.536,1.508-1.106,1.943-2.78,1.943H10.648Zm13.936-6-2.044-5.963c-.435-1.306-.938-3.551-.938-3.551h-.067s-.5,2.245-.938,3.551l-2.044,5.963Z"/>
    <path class="cls-7" d="M37.816,46.731H35.638V43.012H45.922c4.288,0,7.37,2.211,7.37,6.13a5.548,5.548,0,0,1-2.88,5.092V54.3A5.578,5.578,0,0,1,54.231,59.9c0,4.757-3.786,6.9-8.208,6.9h-5.93c-1.575,0-2.278-.67-2.278-2.278Zm8.141,6a2.806,2.806,0,0,0,2.881-3.049,2.727,2.727,0,0,0-2.948-2.948H42.2v6ZM42.941,63.079h3.417a3.435,3.435,0,0,0,0-6.868H42.2v6.13A.671.671,0,0,0,42.941,63.079Z"/>
    <path class="cls-7" d="M70.577,42.61A12.016,12.016,0,0,1,82.872,54.738a12.3,12.3,0,1,1-24.59,0A12.016,12.016,0,0,1,70.577,42.61Zm0,20.5c4.288,0,7.739-3.618,7.739-8.375a7.745,7.745,0,1,0-15.478,0C62.838,59.494,66.289,63.113,70.577,63.113Z"/>
    <path class="cls-7" d="M87.224,47.468a.924.924,0,0,0-1.038-.737h-.6V43.012h2.781c1.675,0,2.278.436,2.814,1.943l4.556,13.266a33.469,33.469,0,0,1,.9,3.484H96.7a33.581,33.581,0,0,1,.905-3.484l4.556-13.266c.536-1.507,1.106-1.943,2.781-1.943h2.814v3.719h-.636a.925.925,0,0,0-1.039.737l-7.1,19.33H94.36Z"/>
    <path class="cls-7" d="M122.767,42.61a12.016,12.016,0,0,1,12.295,12.128,12.3,12.3,0,1,1-24.59,0A12.016,12.016,0,0,1,122.767,42.61Zm0,20.5c4.288,0,7.738-3.618,7.738-8.375a7.744,7.744,0,1,0-15.477,0C115.028,59.494,118.479,63.113,122.767,63.113Z"/>
    <g>
      <path class="cls-7" d="M138.775,64.636h1.244c.471,0,.707-.235.741-.74l1.649-20.829H144.8l6.258,13.763c.572,1.211,1.178,2.793,1.178,2.793h.067s.606-1.582,1.144-2.793L159.7,43.067h2.39L163.743,63.9c.033.5.269.74.74.74h1.279v2.086h-2.289c-1.447,0-1.951-.606-2.052-2.052L160.31,50.3c-.1-1.279-.1-3.3-.1-3.3h-.067a31.954,31.954,0,0,1-1.211,3.3l-5.62,12.012h-2.12L145.606,50.3c-.538-1.178-1.244-3.365-1.244-3.365h-.068s0,2.086-.1,3.365L143.082,64.67c-.1,1.447-.605,2.052-2.052,2.052h-2.254Z"/>
      <path class="cls-7" d="M173.638,45.154h-2.187V43.067h13.527c1.447,0,2.052.606,2.052,2.052v2.355H184.81V45.893a.659.659,0,0,0-.74-.74h-8.076v8.614h8.883v2.086h-8.883V63.9a.659.659,0,0,0,.74.74h8.311a.658.658,0,0,0,.741-.74V62.314h2.187V64.67c0,1.447-.605,2.052-2.052,2.052H175.691c-1.447,0-2.053-.606-2.053-2.052Z"/>
      <path class="cls-7" d="M196.452,45.154h-2.187V43.067h9.49c7.133,0,11.878,4.34,11.878,11.811,0,7.537-4.744,11.844-11.878,11.844h-5.249c-1.447,0-2.053-.606-2.053-2.052Zm3.1,19.482h3.971c5.821,0,9.657-3.432,9.657-9.758,0-6.293-3.869-9.724-9.657-9.724h-4.711V63.9A.658.658,0,0,0,199.548,64.636Z"/>
      <path class="cls-7" d="M222.029,64.636h2.22V45.154h-2.22V43.067h6.763v2.087h-2.255V64.636h2.255v2.086h-6.763Z"/>
      <path class="cls-7" d="M234.783,64.636h.437c.606,0,.976-.1,1.211-.74l7.739-20.829h2.524L254.433,63.9c.236.639.572.74,1.212.74h.4v2.086h-1.076c-1.683,0-2.187-.337-2.793-1.952l-2.053-5.586h-9.388l-2.086,5.586c-.605,1.615-1.076,1.952-2.758,1.952h-1.11Zm14.7-7.5-3.129-8.446c-.4-1.111-.909-3.062-.909-3.062h-.068s-.5,1.952-.909,3.062l-3.1,8.446Z"/>
    </g>
  </g>
</svg>
