<?xml version="1.0" encoding="utf-8"?>
<!-- Generator: Adobe Illustrator 24.2.0, SVG Export Plug-In . SVG Version: 6.00 Build 0)  -->
<svg version="1.1" id="Laag_1" xmlns="http://www.w3.org/2000/svg" xmlns:xlink="http://www.w3.org/1999/xlink" x="0px" y="0px"
	 viewBox="0 0 52 50" style="enable-background:new 0 0 52 50;" xml:space="preserve">
<style type="text/css">
	.st0{fill:#5FFFE2;}
	.st1{fill:#0E0523;}
	.st2{fill:#FFFFFF;}
</style>
<g id="shape" transform="translate(0.004 32.633)">
	<rect id="Rectangle_114" x="0" y="0" class="st0" width="52" height="17.37"/>
</g>
<path id="Path_69" class="st1" d="M7.83,47.96l-5.25-8.14v8.14H0V34.68h2.31l5.25,8.13v-8.13h2.58v13.27L7.83,47.96z"/>
<path id="Path_70" class="st1" d="M21.59,46.61c-2,1.94-5.17,1.94-7.16,0c-1.34-1.34-1.3-3-1.3-5.29s-0.04-3.95,1.3-5.29
	c2-1.94,5.17-1.94,7.16,0c1.34,1.34,1.32,3,1.32,5.29S22.93,45.27,21.59,46.61 M19.68,37.6c-0.42-0.47-1.03-0.73-1.66-0.71
	c-0.63-0.02-1.24,0.24-1.67,0.71c-0.5,0.56-0.63,1.17-0.63,3.73c0,2.55,0.13,3.17,0.63,3.73c0.43,0.47,1.04,0.73,1.67,0.71
	c0.63,0.02,1.23-0.24,1.66-0.71c0.5-0.56,0.65-1.17,0.65-3.73C20.33,38.77,20.18,38.16,19.68,37.6"/>
<rect id="Rectangle_115" x="25.91" y="34.69" class="st1" width="2.59" height="13.27"/>
<path id="Path_71" class="st1" d="M35.58,48.07c-1.79,0.14-3.55-0.5-4.84-1.75l1.67-1.68c0.87,0.79,2.03,1.2,3.2,1.12
	c1.53,0,2.34-0.58,2.34-1.64c0.03-0.41-0.12-0.82-0.41-1.12c-0.33-0.28-0.74-0.44-1.17-0.47l-1.6-0.22
	c-0.95-0.08-1.85-0.47-2.57-1.1c-0.66-0.7-1-1.65-0.95-2.61c0-2.37,1.75-4.03,4.61-4.03c1.58-0.1,3.13,0.46,4.28,1.55l-1.64,1.62
	c-0.75-0.66-1.72-0.99-2.72-0.91c-1.38,0-2.05,0.76-2.05,1.68c-0.01,0.36,0.13,0.7,0.39,0.95c0.35,0.29,0.78,0.47,1.23,0.52
	l1.56,0.22c0.93,0.06,1.82,0.42,2.53,1.02c0.72,0.75,1.09,1.77,1.02,2.81C40.49,46.61,38.35,48.07,35.58,48.07"/>
<path id="Path_72" class="st1" d="M43.27,47.96V34.68H52v2.31h-6.14v3.11h5.23v2.31h-5.23v3.22H52v2.31L43.27,47.96z"/>
<path id="Path_73" class="st2" d="M4.54,30.67c-1.7,0.11-3.36-0.53-4.54-1.75l0.97-0.97c0.93,1,2.25,1.53,3.61,1.45
	c1.93,0,3.12-0.91,3.12-2.46c0.04-0.62-0.19-1.22-0.63-1.66c-0.49-0.4-1.1-0.62-1.73-0.63l-1.55-0.24c-0.89-0.1-1.73-0.45-2.44-1.01
	c-0.69-0.64-1.05-1.55-1-2.48c0-2.25,1.62-3.75,4.24-3.75c1.46-0.08,2.88,0.45,3.94,1.45l-0.91,0.91c-0.83-0.79-1.95-1.2-3.09-1.14
	c-1.77,0-2.79,0.99-2.79,2.46c-0.04,0.57,0.18,1.13,0.6,1.53c0.52,0.39,1.14,0.64,1.79,0.73l1.45,0.22
	c0.88,0.05,1.73,0.38,2.42,0.93c0.75,0.66,1.16,1.63,1.12,2.63C9.12,29.23,7.29,30.67,4.54,30.67"/>
<path id="Path_74" class="st2" d="M19.59,29.29c-1.88,1.84-4.89,1.84-6.77,0c-1.25-1.25-1.25-2.55-1.25-5.37s0-4.12,1.25-5.37
	c1.88-1.84,4.89-1.84,6.77,0c1.25,1.25,1.25,2.55,1.25,5.37S20.83,28.04,19.59,29.29 M18.49,19.39c-1.26-1.27-3.31-1.27-4.57,0l0,0
	c-0.84,0.86-0.93,1.75-0.93,4.53s0.09,3.67,0.93,4.53c1.26,1.27,3.31,1.27,4.57,0l0,0c0.84-0.86,0.93-1.75,0.93-4.53
	S19.33,20.25,18.49,19.39"/>
<path id="Path_75" class="st2" d="M34.09,30.56V20.48l-3.63,8h-1.21l-3.68-8v10.08h-1.41V17.29h1.41l4.32,9.41l4.2-9.41h1.41v13.27
	C35.5,30.56,34.09,30.56,34.09,30.56z"/>
<path id="Path_76" class="st2" d="M39.33,30.56V17.29h8.22v1.27h-6.81v4.68h5.8v1.27h-5.8v4.79h6.81v1.27L39.33,30.56z"/>
<path id="Path_77" class="st2" d="M20.94,12.04c-0.91,0.84-2.11,1.28-3.35,1.23h-4.54V0h4.54c1.23-0.05,2.44,0.39,3.35,1.23
	c1.38,1.38,1.3,3.41,1.3,5.26S22.31,10.66,20.94,12.04 M19.95,2.24c-0.69-0.67-1.64-1.03-2.6-0.97h-2.88V12h2.88
	c0.97,0.06,1.91-0.29,2.6-0.97c0.91-0.95,0.87-2.93,0.87-4.55S20.87,3.19,19.95,2.24"/>
<path id="Path_78" class="st2" d="M5.49,2.04l2.45,7.01H2.99L5.49,2.04z M4.87,0L0,13.27h1.51l1.06-3h5.79l1.06,3h1.51L6.06,0H4.87z
	"/>
</svg>
