<?xml version="1.0" encoding="utf-8"?>
<!-- Generator: Adobe Illustrator 24.0.1, SVG Export Plug-In . SVG Version: 6.00 Build 0)  -->
<svg version="1.1" id="Layer_1" xmlns="http://www.w3.org/2000/svg" xmlns:xlink="http://www.w3.org/1999/xlink" x="0px" y="0px"
	 viewBox="0 0 2122.8 218.2" style="enable-background:new 0 0 2122.8 218.2;" xml:space="preserve">
<style type="text/css">
	.st0{fill:#B2B2B2;}
	.st1{fill:#FFFFFF;}
	.st2{fill:#F0191E;}
	.st3{fill:#B3B2B2;}
	.st4{fill:#868686;}
	.st5{fill:url(#SVGID_1_);}
	.st6{fill:url(#SVGID_2_);}
</style>
<title>MP_Logo_pos_en_RGB</title>
<g>
	<path d="M1640.6,96.7V1.8h26.1v71.5h26.1v23.4H1640.6z M1211.3,96.7l-5.2-31.6c-0.5-3.2-0.9-6.5-1.4-10c-0.5-3.5-0.9-7.3-1.4-11.5
		h-0.3c-1.5,8.1-3.4,16.4-5.8,24.9l-7.5,28.2h-24.4l-7.4-25.1c-1.3-4.4-2.5-9-3.6-13.7c-1.1-4.7-1.9-9.5-2.6-14.3h-0.4
		c-0.5,4.8-0.9,9-1.4,12.8c-0.5,3.7-0.9,7.4-1.4,11l-3.9,29.3h-26.3L1134,1.9h29.5l10,32.9c1,3.3,1.9,6.6,2.7,10.1
		c0.8,3.4,1.6,7.2,2.3,11.4h0.3c0.8-4,1.6-7.7,2.4-11.2c0.8-3.4,1.9-7,3.1-10.8l10.1-32.5h28.7l15.6,94.9H1211.3z M1253.3,96.7V1.8
		h55.5V24h-29.4v13.4h27.8v21.3h-27.8v15.5h29.4v22.5H1253.3z M1406.8,68.5c-2.3,6-5.8,11.4-10.4,15.8c-4.6,4.4-10.1,7.7-16.2,9.8
		c-6.7,2.3-13.8,3.4-20.9,3.3c-10.5,0-20.5-0.3-30.1-0.8V2.1c3.7-0.2,8.6-0.4,14.7-0.6s12.5-0.3,19.5-0.3c6.4-0.1,12.8,0.7,19,2.3
		c5.5,1.4,10.6,4,14.9,7.7c4.4,3.8,7.7,8.7,9.7,14.1c2.3,5.9,3.4,13.1,3.4,21.6C1410.5,54.3,1409.3,61.6,1406.8,68.5z M1381.5,38.9
		c-0.4-2.9-1.4-5.7-2.9-8.2c-1.5-2.4-3.7-4.2-6.2-5.4c-3.3-1.4-6.9-2.1-10.5-2h-3.8c-0.9,0-1.9,0.1-2.8,0.3v50.9c2,0.3,4,0.5,6,0.4
		c2.8,0,5.6-0.5,8.2-1.6c2.5-1,4.8-2.7,6.6-4.7c2-2.3,3.5-5.1,4.4-8c1.2-3.7,1.7-7.6,1.6-11.5C1382.2,45.7,1382,42.3,1381.5,38.9z
		 M1424.1,96.7V1.8h26.2v94.9H1424.1z M1523.8,96.7l-4.9-15.5h-29.2l-4.8,15.5h-25.9L1490,1.9h29.9l32.5,94.9H1523.8z M1508.5,48.7
		c-0.8-2.7-1.7-5.4-2.5-8c-0.8-2.8-1.5-5.6-1.9-8.4h-0.3c-0.5,2.7-1.1,5.6-1.9,8.7s-1.7,6.2-2.7,9.3l-3.2,10.4h16.3L1508.5,48.7z
		 M1626.5,46.1c-1.5,4.2-3.9,7.9-7,11.1c-3.4,3.3-7.4,5.9-11.8,7.6c-5.3,2-11,2.9-16.7,2.8h-1.5c-0.8,0-1.6-0.1-2.4-0.1v29.3H1561
		V1.8c4.4-0.2,9-0.4,13.7-0.5c4.7-0.1,9.7-0.2,15-0.2c12.7,0,22.5,2.7,29.2,8c6.7,5.3,10,13.2,10,23.8
		C1628.8,37.4,1628.1,41.9,1626.5,46.1z M1599.1,25.9c-1.8-2.2-5-3.4-9.5-3.4h-1c-0.5,0-1,0.1-1.5,0.1v23c0.4,0.1,0.7,0.1,1.1,0.1
		h0.8c3.2,0,6.4-1,8.9-3.1c2.6-2,3.9-5,3.9-8.9C1601.9,30.9,1600.9,28.1,1599.1,25.9L1599.1,25.9z M1778.3,76.9
		c-1.7,4.7-4.6,8.9-8.2,12.3c-3.7,3.3-8.2,5.8-13,7.2c-5.6,1.6-11.4,2.4-17.2,2.3c-7.6,0-13.9-0.9-18.8-2.8
		c-4.5-1.6-8.6-4.2-11.8-7.7c-2.9-3.3-5-7.3-6.1-11.5c-1.2-4.6-1.8-9.4-1.8-14.2V1.8h26.1v59.3c0,5.1,1,8.9,2.9,11.6
		c1.9,2.7,5.6,4,11,4c5.3,0,8.9-1.2,10.9-3.7s3-6.7,3-12.6V1.8h25.9V59C1781.3,65.1,1780.3,71.2,1778.3,76.9z M1855.6,78.4
		c-1.9,4-4.6,7.6-8,10.5c-3.8,3.1-8.1,5.5-12.8,7c-5.5,1.8-11.2,2.6-17,2.5c-3.3,0-6.6-0.1-9.8-0.4c-3.3-0.3-6.5-0.8-9.7-1.5
		l1.4-23.9c3.1,1.1,6.2,1.9,9.4,2.4c3.6,0.7,7.2,1,10.8,1c2.7,0.1,5.3-0.5,7.6-1.9c1.8-1.1,2.8-3,2.8-5.1c0.1-2.1-0.9-4.1-2.6-5.3
		c-2-1.5-4.2-2.6-6.5-3.4c-2.6-1-5.5-2.1-8.6-3.2c-3.1-1.2-6-2.8-8.6-4.8c-2.7-2.2-5-5-6.5-8.1c-1.7-3.3-2.6-7.7-2.6-13.1
		c0-9.5,3.4-17,10.3-22.6s16.6-8.4,29.2-8.4c2.4,0,5.2,0.1,8.2,0.4s6.1,0.7,9.1,1.1l-1.4,22.6c-2.7-0.8-5.5-1.4-8.3-1.8
		c-2.8-0.5-5.7-0.7-8.6-0.7c-3.7,0-6.3,0.6-7.9,1.9c-1.5,1.1-2.5,2.8-2.4,4.7c0,1.9,1,3.7,2.6,4.8c2.1,1.4,4.2,2.6,6.5,3.5
		c2.6,1.1,5.5,2.3,8.6,3.6c3.1,1.3,6,2.9,8.6,5c2.7,2.1,4.9,4.8,6.5,7.9c1.7,3.2,2.6,7.3,2.6,12.2
		C1858.5,69.8,1857.5,74.3,1855.6,78.4z"/>
	<path class="st0" d="M54.4,216.3V179H26.1v37.3H0v-94.6h26.1v34.5h28.3v-34.5h26.1v94.6L54.4,216.3z M140,218.2
		c-29.7,0-44.3-18-44.3-48c0-30.6,21.6-50.6,48.1-50.6c24.7,0,44.3,13.3,44.3,47.7C188.1,198.2,167,218.2,140,218.2z M141.9,143.5
		c-9.1,0-18.4,7-18.4,24.8c0,16.1,5.2,25.9,17.8,25.9c8.1,0,19.1-5.6,19.1-25.6C160.4,152.1,154.4,143.5,141.9,143.5L141.9,143.5z
		 M241.8,218.2c-30.4,0-38.4-16.1-38.4-36.2v-60.4h26.1v59.2c0,10.1,3.1,15.6,13.9,15.6c10.5,0,13.9-4.5,13.9-16.3v-58.5h25.8v57.1
		C283.1,206.2,267.2,218.2,241.8,218.2z M321.7,218.1c-6.5,0-13.1-0.6-19.5-2l1.4-23.8c6.5,2.2,13.3,3.3,20.2,3.4
		c6.3,0,10.4-2.7,10.4-7c0-13.7-35.3-5.6-35.3-38c0-18.8,14.4-30.8,39.4-30.8c5.8,0.1,11.5,0.6,17.2,1.5l-1.4,22.6
		c-5.5-1.6-11.2-2.4-16.9-2.5c-7.3,0-10.4,2.9-10.4,6.6c0,11.9,35.3,7.3,35.3,36.9C362.3,203.8,347,218.1,321.7,218.1z M378.1,216.3
		v-94.6h55.4v22.1h-29.3v13.3H432v21.3h-27.8v15.4h29.3v22.6L378.1,216.3z M527.7,218.2c-29.7,0-44.3-18-44.3-48
		c0-30.6,21.6-50.6,48.1-50.6c24.7,0,44.3,13.3,44.3,47.7C575.8,198.2,554.6,218.2,527.7,218.2z M529.5,143.5
		c-9.1,0-18.4,7-18.4,24.8c0,16.1,5.2,25.9,17.8,25.9c8.1,0,19.1-5.6,19.1-25.6C548,152.1,542,143.5,529.5,143.5L529.5,143.5z
		 M617.2,144.1v15.3h26.4v21.5h-26.4v35.5h-26.1v-94.6h54v22.4H617.2z M739.3,217.5c-37.2,0-44.9-25.7-44.9-44.7
		c0-31.5,17.8-51.9,48.8-51.9c6.1,0,12.3,0.8,18.2,2.2l-3,23.6c-5-1.4-10.1-2.1-15.3-2.1c-12.3,0-20,8.6-20,23.8
		c0,16.4,6.3,25.2,21,25.2c4.9-0.1,9.7-1,14.3-2.7l3.1,23.3C754.3,216.5,746.8,217.6,739.3,217.5z M815.4,218.2
		c-29.7,0-44.3-18-44.3-48c0-30.6,21.6-50.6,48.1-50.6c24.7,0,44.3,13.3,44.3,47.7C863.5,198.2,842.3,218.2,815.4,218.2z
		 M817.2,143.5c-9.1,0-18.4,7-18.4,24.8c0,16.1,5.2,25.9,17.8,25.9c8.1,0,19.1-5.6,19.1-25.6C835.7,152.1,829.7,143.5,817.2,143.5
		L817.2,143.5z M963.3,216.3l-5.2-31.5c-1-6.3-2-13.3-2.8-21.5H955c-1.5,8.3-3.4,16.1-5.8,24.8l-7.6,28.2h-24.4l-7.4-25.1
		c-2.7-9.1-4.8-18.5-6.2-27.9h-0.3c-0.8,9.4-1.8,16.5-2.8,23.7l-3.9,29.3h-26.2l15.7-94.6h29.4l10,32.8c2,7.1,3.7,14.2,5,21.5h0.3
		c1.3-7.4,3.1-14.7,5.5-21.9l10.1-32.4H975l15.6,94.6L963.3,216.3z M1092.3,216.3l-5.2-31.5c-1-6.3-2-13.3-2.8-21.5h-0.3
		c-1.5,8.3-3.4,16.1-5.7,24.8l-7.6,28.2h-24.4l-7.4-25.1c-2.7-9.1-4.8-18.5-6.2-27.9h-0.3c-0.8,9.4-1.8,16.5-2.8,23.7l-3.9,29.3
		h-26.2l15.7-94.6h29.4l10,32.8c2.1,7.1,3.7,14.2,5,21.5h0.3c1.3-7.4,3.1-14.7,5.5-21.9l10.1-32.4h28.6l15.6,94.6L1092.3,216.3z
		 M1170.5,218.2c-30.4,0-38.4-16.1-38.4-36.2v-60.4h26.1v59.2c0,10.1,3.1,15.6,13.9,15.6c10.5,0,13.9-4.5,13.9-16.3v-58.5h25.8v57.1
		C1211.7,206.2,1195.9,218.2,1170.5,218.2z M1282.1,216.3l-15.8-32.4c-3.7-7.4-7-15-9.4-21.3c0.5,5,0.8,10,0.7,15v38.7h-25.1v-94.6
		h33.4l13.7,28.2c4.1,8.4,8.3,17,11.5,24.5c-0.7-6.5-1-13.1-1-19.6v-33.1h25.1v94.6L1282.1,216.3z M1336.7,216.3v-94.6h26.1v94.6
		L1336.7,216.3z M1422.4,217.5c-37.2,0-44.9-25.7-44.9-44.7c0-31.5,17.8-51.9,48.8-51.9c6.1,0,12.3,0.8,18.2,2.2l-3,23.6
		c-5-1.4-10.1-2.1-15.3-2.1c-12.3,0-20,8.6-20,23.8c0,16.4,6.3,25.2,21,25.2c4.9-0.1,9.7-1,14.3-2.7l3.1,23.3
		C1437.4,216.5,1429.9,217.6,1422.4,217.5z M1518.3,216.3l-4.9-15.4h-29.2l-4.8,15.4h-25.8l30.8-94.6h29.9l32.4,94.6L1518.3,216.3z
		 M1503,168.5c-1.8-5.4-3.3-10.8-4.3-16.4h-0.3c-1.1,6.1-2.6,12.1-4.6,18l-3.2,10.4h16.3L1503,168.5z M1589.1,144.1v72.2H1563v-72.2
		h-20.5v-22.4h67v22.4H1589.1z M1622.2,216.3v-94.6h26.1v94.6L1622.2,216.3z M1707.8,218.2c-29.7,0-44.3-18-44.3-48
		c0-30.6,21.6-50.6,48.1-50.6c24.7,0,44.3,13.3,44.3,47.7C1755.9,198.2,1734.7,218.2,1707.8,218.2z M1709.6,143.5
		c-9.1,0-18.4,7-18.4,24.8c0,16.1,5.2,25.9,17.8,25.9c8.1,0,19.1-5.6,19.1-25.6C1728.2,152.1,1722.1,143.5,1709.6,143.5
		L1709.6,143.5z M1820.8,216.3l-15.8-32.4c-3.6-7.4-7-15-9.4-21.3c0.5,5,0.8,10,0.7,15v38.7h-25.1v-94.6h33.4l13.7,28.2
		c4.1,8.4,8.3,17,11.5,24.5c-0.7-6.5-1-13.1-1-19.6v-33.1h25.1v94.6L1820.8,216.3z"/>
	<g>
		<rect id="big_black_1_" x="1908.3" y="2" width="214.5" height="214.5"/>
		<rect id="white_1_" x="1991.3" y="59.1" class="st1" width="49.6" height="49.6"/>
		<rect id="red_1_" x="1991.3" y="108.7" class="st2" width="49.6" height="49.6"/>
		<rect id="light_grey_1_" x="2040.9" y="108.7" class="st3" width="49.6" height="49.6"/>
		<rect id="dark_grey_1_" x="1941.7" y="59.1" class="st4" width="49.6" height="49.6"/>
		
			<linearGradient id="SVGID_1_" gradientUnits="userSpaceOnUse" x1="-434.5544" y1="426.5283" x2="-434.5544" y2="437.3065" gradientTransform="matrix(4.6 0 0 4.6 4064.5999 -1803.79)">
			<stop  offset="0" style="stop-color:#B3B2B2"/>
			<stop  offset="1" style="stop-color:#000000"/>
		</linearGradient>
		<rect x="2040.9" y="158.2" class="st5" width="49.6" height="49.6"/>
		
			<linearGradient id="SVGID_2_" gradientUnits="userSpaceOnUse" x1="-444.3239" y1="408.1891" x2="-444.3239" y2="397.4109" gradientTransform="matrix(4.6 0 0 4.6 4059.9998 -1817.49)">
			<stop  offset="0" style="stop-color:#FFFFFF"/>
			<stop  offset="1" style="stop-color:#000000"/>
		</linearGradient>
		<rect x="1991.3" y="10.6" class="st6" width="49.6" height="49.6"/>
	</g>
</g>
</svg>
