<svg id="Ebene_1" data-name="Ebene 1" xmlns="http://www.w3.org/2000/svg" xmlns:xlink="http://www.w3.org/1999/xlink" viewBox="0 0 2122.87 216.87"><defs><style>.cls-1{fill:none;}.cls-2{fill:#878787;}.cls-3{clip-path:url(#clip-path);}.cls-4{fill:#fff;}.cls-5{fill:#fefefe;}.cls-6{fill:#fdfdfd;}.cls-7{fill:#fcfcfc;}.cls-8{fill:#fbfbfb;}.cls-9{fill:#fafafa;}.cls-10{fill:#f9f9f9;}.cls-11{fill:#f8f7f7;}.cls-12{fill:#f6f6f6;}.cls-13{fill:#f5f4f5;}.cls-14{fill:#f4f4f4;}.cls-15{fill:#f3f3f3;}.cls-16{fill:#f2f2f2;}.cls-17{fill:#f1f1f1;}.cls-18{fill:#f0f0f0;}.cls-19{fill:#efefef;}.cls-20{fill:#eee;}.cls-21{fill:#ededed;}.cls-22{fill:#ececec;}.cls-23{fill:#ebebeb;}.cls-24{fill:#eaeaea;}.cls-25{fill:#e9e9e9;}.cls-26{fill:#e8e8e8;}.cls-27{fill:#e8e7e7;}.cls-28{fill:#e6e6e6;}.cls-29{fill:#e5e4e4;}.cls-30{fill:#e4e3e3;}.cls-31{fill:#e3e3e2;}.cls-32{fill:#e2e2e1;}.cls-33{fill:#e1e1e0;}.cls-34{fill:#e0e0e0;}.cls-35{fill:#dfdfde;}.cls-36{fill:#dedede;}.cls-37{fill:#ddd;}.cls-38{fill:#dcdcdc;}.cls-39{fill:#dbdbdb;}.cls-40{fill:#dadada;}.cls-41{fill:#d9d9d9;}.cls-42{fill:#d8d8d8;}.cls-43{fill:#d7d8d7;}.cls-44{fill:#d7d7d7;}.cls-45{fill:#d6d6d6;}.cls-46{fill:#d4d4d5;}.cls-47{fill:#d3d3d3;}.cls-48{fill:#d2d2d2;}.cls-49{fill:#d1d0d1;}.cls-50{fill:#d0cfd0;}.cls-51{fill:#cfcfcf;}.cls-52{fill:#cfcece;}.cls-53{fill:#cecdcd;}.cls-54{fill:#cdcccc;}.cls-55{fill:#cccbcb;}.cls-56{fill:#cbcaca;}.cls-57{fill:#cac9c9;}.cls-58{fill:#c9c8c8;}.cls-59{fill:#c8c7c7;}.cls-60{fill:#c8c7c6;}.cls-61{fill:#c7c6c5;}.cls-62{fill:#c6c5c4;}.cls-63{fill:#c4c4c3;}.cls-64{fill:#c3c3c2;}.cls-65{fill:#c3c2c1;}.cls-66{fill:#c2c1c0;}.cls-67{fill:#c0c0bf;}.cls-68{fill:#bfbebd;}.cls-69{fill:#bebdbc;}.cls-70{fill:#bdbcbb;}.cls-71{fill:#bcbcbb;}.cls-72{fill:#bbbbba;}.cls-73{fill:#babab9;}.cls-74{fill:#b9b9b8;}.cls-75{fill:#b8b8b7;}.cls-76{fill:#b7b7b6;}.cls-77{fill:#b6b6b5;}.cls-78{fill:#b5b5b4;}.cls-79{fill:#b4b4b3;}.cls-80{fill:#b3b3b2;}.cls-81{fill:#b3b2b1;}.cls-82{fill:#b2b1b0;}.cls-83{fill:#b1b0af;}.cls-84{fill:#afafae;}.cls-85{fill:#aeaead;}.cls-86{fill:#adadac;}.cls-87{fill:#acacab;}.cls-88{fill:#aaaaa9;}.cls-89{fill:#a9a9a8;}.cls-90{fill:#a8a8a7;}.cls-91{fill:#a8a7a6;}.cls-92{fill:#a7a6a5;}.cls-93{fill:#a6a5a4;}.cls-94{fill:#a5a4a3;}.cls-95{fill:#a4a3a2;}.cls-96{fill:#a3a2a1;}.cls-97{fill:#a2a2a0;}.cls-98{fill:#a1a1a0;}.cls-99{fill:#a0a09f;}.cls-100{fill:#9f9f9e;}.cls-101{fill:#9e9e9d;}.cls-102{fill:#9d9d9c;}.cls-103{fill:#9c9c9b;}.cls-104{fill:#9c9b9a;}.cls-105{fill:#9a9a99;}.cls-106{fill:#999998;}.cls-107{fill:#989897;}.cls-108{fill:#979796;}.cls-109{fill:#969695;}.cls-110{fill:#959594;}.cls-111{fill:#939493;}.cls-112{fill:#929292;}.cls-113{fill:#919191;}.cls-114{fill:#909090;}.cls-115{fill:#90908f;}.cls-116{fill:#8e8f8e;}.cls-117{fill:#8d8e8d;}.cls-118{fill:#8c8d8c;}.cls-119{fill:#8b8c8b;}.cls-120{fill:#8b8b8a;}.cls-121{fill:#8a8a89;}.cls-122{fill:#888988;}.cls-123{fill:#878887;}.cls-124{fill:#878786;}.cls-125{fill:#868685;}.cls-126{fill:#858584;}.cls-127{fill:#848483;}.cls-128{fill:#838382;}.cls-129{fill:#828281;}.cls-130{fill:#818180;}.cls-131{fill:#80807f;}.cls-132{fill:#7f7f7e;}.cls-133{fill:#7e7e7d;}.cls-134{fill:#7d7d7c;}.cls-135{fill:#7c7c7b;}.cls-136{fill:#7b7b7a;}.cls-137{fill:#7a7a79;}.cls-138{fill:#797978;}.cls-139{fill:#787877;}.cls-140{fill:#777776;}.cls-141{fill:#767675;}.cls-142{fill:#757574;}.cls-143{fill:#747473;}.cls-144{fill:#737372;}.cls-145{fill:#727271;}.cls-146{fill:#727170;}.cls-147{fill:#71706f;}.cls-148{fill:#706f6e;}.cls-149{fill:#6f6e6d;}.cls-150{fill:#6e6d6d;}.cls-151{fill:#6d6d6c;}.cls-152{fill:#6c6c6b;}.cls-153{fill:#6b6b6a;}.cls-154{fill:#6a6a69;}.cls-155{fill:#696968;}.cls-156{fill:#686867;}.cls-157{fill:#676766;}.cls-158{fill:#666665;}.cls-159{fill:#656564;}.cls-160{fill:#646462;}.cls-161{fill:#636361;}.cls-162{fill:#626260;}.cls-163{fill:#61615f;}.cls-164{fill:#60605e;}.cls-165{fill:#5f5f5e;}.cls-166{fill:#5e5e5d;}.cls-167{fill:#5d5d5c;}.cls-168{fill:#5c5c5b;}.cls-169{fill:#5b5b5a;}.cls-170{fill:#5a5a59;}.cls-171{fill:#595958;}.cls-172{fill:#585857;}.cls-173{fill:#575756;}.cls-174{fill:#575755;}.cls-175{fill:#565653;}.cls-176{fill:#555452;}.cls-177{fill:#545351;}.cls-178{fill:#535250;}.cls-179{fill:#52514f;}.cls-180{fill:#50504e;}.cls-181{fill:#4f4f4d;}.cls-182{fill:#4e4e4c;}.cls-183{fill:#4d4d4b;}.cls-184{fill:#4c4c4a;}.cls-185{fill:#4c4b49;}.cls-186{fill:#4b4a48;}.cls-187{fill:#4a4947;}.cls-188{fill:#484846;}.cls-189{fill:#474745;}.cls-190{fill:#464644;}.cls-191{fill:#454543;}.cls-192{fill:#444442;}.cls-193{fill:#434341;}.cls-194{fill:#424240;}.cls-195{fill:#41413f;}.cls-196{fill:#40403e;}.cls-197{fill:#3f3f3d;}.cls-198{fill:#3e3e3c;}.cls-199{fill:#3d3d3b;}.cls-200{fill:#3c3c3a;}.cls-201{fill:#3b3b39;}.cls-202{fill:#3a3a38;}.cls-203{fill:#393937;}.cls-204{fill:#383836;}.cls-205{fill:#373735;}.cls-206{fill:#363634;}.cls-207{fill:#353533;}.cls-208{fill:#343432;}.cls-209{fill:#333331;}.cls-210{fill:#313230;}.cls-211{fill:#30302f;}.cls-212{fill:#2f2f2e;}.cls-213{fill:#2e2e2d;}.cls-214{fill:#2d2d2b;}.cls-215{fill:#2c2c2a;}.cls-216{fill:#2b2b29;}.cls-217{fill:#2a2a28;}.cls-218{fill:#292927;}.cls-219{fill:#282826;}.cls-220{fill:#272725;}.cls-221{fill:#262624;}.cls-222{fill:#242523;}.cls-223{fill:#232422;}.cls-224{fill:#222321;}.cls-225{fill:#212120;}.cls-226{fill:#20201e;}.cls-227{fill:#1f201e;}.cls-228{fill:#1f1f1d;}.cls-229{fill:#1e1f1c;}.cls-230{fill:#1d1e1b;}.cls-231{clip-path:url(#clip-path-3);}.cls-232{fill:#b3b2b2;}.cls-233{fill:#b2b1b1;}.cls-234{fill:#b1b0b0;}.cls-235{fill:#aeaeae;}.cls-236{fill:#adadad;}.cls-237{fill:#acacac;}.cls-238{fill:#aaa;}.cls-239{fill:#a9a9a9;}.cls-240{fill:#a7a6a6;}.cls-241{fill:#a6a5a5;}.cls-242{fill:#a5a4a4;}.cls-243{fill:#a4a3a3;}.cls-244{fill:#a3a2a2;}.cls-245{fill:#9e9e9e;}.cls-246{fill:#9d9d9d;}.cls-247{fill:#9c9c9c;}.cls-248{fill:#989898;}.cls-249{fill:#979797;}.cls-250{fill:#969696;}.cls-251{fill:#959595;}.cls-252{fill:#8f9090;}.cls-253{fill:#8e8f8f;}.cls-254{fill:#8d8d8e;}.cls-255{fill:#8c8c8d;}.cls-256{fill:#868686;}.cls-257{fill:#858585;}.cls-258{fill:#848484;}.cls-259{fill:#7c7c7c;}.cls-260{fill:#7b7b7b;}.cls-261{fill:#717070;}.cls-262{fill:#706f6f;}.cls-263{fill:#5f5f5d;}.cls-264{fill:#5e5e5c;}.cls-265{fill:#565554;}.cls-266{fill:#555453;}.cls-267{fill:#545352;}.cls-268{fill:#535251;}.cls-269{fill:#525150;}.cls-270{fill:#50504f;}.cls-271{fill:#4f4f4e;}.cls-272{fill:#4e4e4d;}.cls-273{fill:#4e4d4c;}.cls-274{fill:#4d4c4b;}.cls-275{fill:#4c4b4a;}.cls-276{fill:#40403f;}.cls-277{fill:#3f3f3e;}.cls-278{fill:#3e3e3d;}.cls-279{fill:#3d3d3c;}.cls-280{fill:#3c3c3b;}.cls-281{fill:#3b3b3a;}.cls-282{fill:#353534;}.cls-283{fill:#343433;}.cls-284{fill:#333332;}.cls-285{fill:#262625;}.cls-286{fill:#20201f;}.cls-287{fill:#e52426;}</style><clipPath id="clip-path" transform="translate(637.28 -312.62)"><rect class="cls-1" x="1353.54" y="321.26" width="49.3" height="49.67"/></clipPath><clipPath id="clip-path-3" transform="translate(637.28 -312.62)"><rect class="cls-1" x="1402.85" y="469.08" width="49.3" height="49.39"/></clipPath></defs><rect x="1908.52" y="0.67" width="214.36" height="214.36"/><rect class="cls-2" x="1941.53" y="57.95" width="49.3" height="49.3"/><g class="cls-3"><g class="cls-3"><polyline class="cls-4" points="1990.83 58.09 2040.13 58.09 2040.13 58.31 1990.83 58.31 1990.83 58.09"/><polyline class="cls-4" points="1990.83 57.88 2040.13 57.88 2040.13 58.09 1990.83 58.09 1990.83 57.88"/><polyline class="cls-5" points="1990.83 57.66 2040.13 57.66 2040.13 57.88 1990.83 57.88 1990.83 57.66"/><polyline class="cls-6" points="1990.83 57.44 2040.13 57.44 2040.13 57.66 1990.83 57.66 1990.83 57.44"/><polyline class="cls-7" points="1990.83 57.23 2040.13 57.23 2040.13 57.44 1990.83 57.44 1990.83 57.23"/><polyline class="cls-8" points="1990.83 57.01 2040.13 57.01 2040.13 57.23 1990.83 57.23 1990.83 57.01"/><polyline class="cls-9" points="1990.83 56.79 2040.13 56.79 2040.13 57.01 1990.83 57.01 1990.83 56.79"/><polyline class="cls-10" points="1990.83 56.58 2040.13 56.58 2040.13 56.79 1990.83 56.79 1990.83 56.58"/><polyline class="cls-11" points="1990.83 56.36 2040.13 56.36 2040.13 56.58 1990.83 56.58 1990.83 56.36"/><polyline class="cls-12" points="1990.83 56.14 2040.13 56.14 2040.13 56.36 1990.83 56.36 1990.83 56.14"/><polyline class="cls-13" points="1990.83 55.93 2040.13 55.93 2040.13 56.14 1990.83 56.14 1990.83 55.93"/><polyline class="cls-14" points="1990.83 55.71 2040.13 55.71 2040.13 55.93 1990.83 55.93 1990.83 55.71"/><polyline class="cls-15" points="1990.83 55.49 2040.13 55.49 2040.13 55.71 1990.83 55.71 1990.83 55.49"/><polyline class="cls-16" points="1990.83 55.27 2040.13 55.27 2040.13 55.49 1990.83 55.49 1990.83 55.27"/><polyline class="cls-17" points="1990.83 55.06 2040.13 55.06 2040.13 55.27 1990.83 55.27 1990.83 55.06"/><polyline class="cls-18" points="1990.83 54.84 2040.13 54.84 2040.13 55.06 1990.83 55.06 1990.83 54.84"/><polyline class="cls-19" points="1990.83 54.63 2040.13 54.63 2040.13 54.84 1990.83 54.84 1990.83 54.63"/><polyline class="cls-20" points="1990.83 54.41 2040.13 54.41 2040.13 54.63 1990.83 54.63 1990.83 54.41"/><polyline class="cls-21" points="1990.83 54.19 2040.13 54.19 2040.13 54.41 1990.83 54.41 1990.83 54.19"/><polyline class="cls-22" points="1990.83 53.97 2040.13 53.97 2040.13 54.19 1990.83 54.19 1990.83 53.97"/><polyline class="cls-23" points="1990.83 53.76 2040.13 53.76 2040.13 53.97 1990.83 53.97 1990.83 53.76"/><polyline class="cls-24" points="1990.83 53.54 2040.13 53.54 2040.13 53.76 1990.83 53.76 1990.83 53.54"/><polyline class="cls-25" points="1990.83 53.32 2040.13 53.32 2040.13 53.54 1990.83 53.54 1990.83 53.32"/><polyline class="cls-26" points="1990.83 53.11 2040.13 53.11 2040.13 53.32 1990.83 53.32 1990.83 53.11"/><polyline class="cls-27" points="1990.83 52.89 2040.13 52.89 2040.13 53.11 1990.83 53.11 1990.83 52.89"/><polyline class="cls-28" points="1990.83 52.67 2040.13 52.67 2040.13 52.89 1990.83 52.89 1990.83 52.67"/><polyline class="cls-29" points="1990.83 52.46 2040.13 52.46 2040.13 52.67 1990.83 52.67 1990.83 52.46"/><polyline class="cls-30" points="1990.83 52.24 2040.13 52.24 2040.13 52.46 1990.83 52.46 1990.83 52.24"/><polyline class="cls-31" points="1990.83 52.02 2040.13 52.02 2040.13 52.24 1990.83 52.24 1990.83 52.02"/><polyline class="cls-32" points="1990.83 51.8 2040.13 51.8 2040.13 52.02 1990.83 52.02 1990.83 51.8"/><polyline class="cls-33" points="1990.83 51.59 2040.13 51.59 2040.13 51.8 1990.83 51.8 1990.83 51.59"/><polyline class="cls-34" points="1990.83 51.37 2040.13 51.37 2040.13 51.59 1990.83 51.59 1990.83 51.37"/><polyline class="cls-35" points="1990.83 51.15 2040.13 51.15 2040.13 51.37 1990.83 51.37 1990.83 51.15"/><polyline class="cls-36" points="1990.83 50.94 2040.13 50.94 2040.13 51.15 1990.83 51.15 1990.83 50.94"/><polyline class="cls-37" points="1990.83 50.72 2040.13 50.72 2040.13 50.94 1990.83 50.94 1990.83 50.72"/><polyline class="cls-38" points="1990.83 50.5 2040.13 50.5 2040.13 50.72 1990.83 50.72 1990.83 50.5"/><polyline class="cls-39" points="1990.83 50.29 2040.13 50.29 2040.13 50.5 1990.83 50.5 1990.83 50.29"/><polyline class="cls-40" points="1990.83 50.07 2040.13 50.07 2040.13 50.29 1990.83 50.29 1990.83 50.07"/><polyline class="cls-41" points="1990.83 49.85 2040.13 49.85 2040.13 50.07 1990.83 50.07 1990.83 49.85"/><polyline class="cls-42" points="1990.83 49.64 2040.13 49.64 2040.13 49.85 1990.83 49.85 1990.83 49.64"/><polyline class="cls-43" points="1990.83 49.42 2040.13 49.42 2040.13 49.64 1990.83 49.64 1990.83 49.42"/><polyline class="cls-44" points="1990.83 49.2 2040.13 49.2 2040.13 49.42 1990.83 49.42 1990.83 49.2"/><polyline class="cls-45" points="1990.83 48.99 2040.13 48.99 2040.13 49.2 1990.83 49.2 1990.83 48.99"/><polyline class="cls-46" points="1990.83 48.77 2040.13 48.77 2040.13 48.99 1990.83 48.99 1990.83 48.77"/><polyline class="cls-47" points="1990.83 48.55 2040.13 48.55 2040.13 48.77 1990.83 48.77 1990.83 48.55"/><polyline class="cls-48" points="1990.83 48.34 2040.13 48.34 2040.13 48.55 1990.83 48.55 1990.83 48.34"/><polyline class="cls-49" points="1990.83 48.12 2040.13 48.12 2040.13 48.34 1990.83 48.34 1990.83 48.12"/><polyline class="cls-50" points="1990.83 47.9 2040.13 47.9 2040.13 48.12 1990.83 48.12 1990.83 47.9"/><polyline class="cls-51" points="1990.83 47.68 2040.13 47.68 2040.13 47.9 1990.83 47.9 1990.83 47.68"/><polyline class="cls-52" points="1990.83 47.47 2040.13 47.47 2040.13 47.68 1990.83 47.68 1990.83 47.47"/><polyline class="cls-53" points="1990.83 47.25 2040.13 47.25 2040.13 47.47 1990.83 47.47 1990.83 47.25"/><polyline class="cls-54" points="1990.83 47.03 2040.13 47.03 2040.13 47.25 1990.83 47.25 1990.83 47.03"/><polyline class="cls-55" points="1990.83 46.82 2040.13 46.82 2040.13 47.03 1990.83 47.03 1990.83 46.82"/><polyline class="cls-56" points="1990.83 46.6 2040.13 46.6 2040.13 46.82 1990.83 46.82 1990.83 46.6"/><polyline class="cls-57" points="1990.83 46.38 2040.13 46.38 2040.13 46.6 1990.83 46.6 1990.83 46.38"/><polyline class="cls-58" points="1990.83 46.17 2040.13 46.17 2040.13 46.38 1990.83 46.38 1990.83 46.17"/><polyline class="cls-59" points="1990.83 45.95 2040.13 45.95 2040.13 46.17 1990.83 46.17 1990.83 45.95"/><polyline class="cls-60" points="1990.83 45.73 2040.13 45.73 2040.13 45.95 1990.83 45.95 1990.83 45.73"/><polyline class="cls-61" points="1990.83 45.52 2040.13 45.52 2040.13 45.73 1990.83 45.73 1990.83 45.52"/><polyline class="cls-62" points="1990.83 45.3 2040.13 45.3 2040.13 45.52 1990.83 45.52 1990.83 45.3"/><polyline class="cls-63" points="1990.83 45.08 2040.13 45.08 2040.13 45.3 1990.83 45.3 1990.83 45.08"/><polyline class="cls-64" points="1990.83 44.87 2040.13 44.87 2040.13 45.08 1990.83 45.08 1990.83 44.87"/><polyline class="cls-65" points="1990.83 44.65 2040.13 44.65 2040.13 44.87 1990.83 44.87 1990.83 44.65"/><polyline class="cls-66" points="1990.83 44.43 2040.13 44.43 2040.13 44.65 1990.83 44.65 1990.83 44.43"/><polyline class="cls-67" points="1990.83 44.21 2040.13 44.21 2040.13 44.43 1990.83 44.43 1990.83 44.21"/><polyline class="cls-68" points="1990.83 44 2040.13 44 2040.13 44.21 1990.83 44.21 1990.83 44"/><polyline class="cls-69" points="1990.83 43.78 2040.13 43.78 2040.13 44 1990.83 44 1990.83 43.78"/><polyline class="cls-70" points="1990.83 43.56 2040.13 43.56 2040.13 43.78 1990.83 43.78 1990.83 43.56"/><polyline class="cls-71" points="1990.83 43.35 2040.13 43.35 2040.13 43.56 1990.83 43.56 1990.83 43.35"/><polyline class="cls-72" points="1990.83 43.13 2040.13 43.13 2040.13 43.35 1990.83 43.35 1990.83 43.13"/><polyline class="cls-73" points="1990.83 42.91 2040.13 42.91 2040.13 43.13 1990.83 43.13 1990.83 42.91"/><polyline class="cls-74" points="1990.83 42.7 2040.13 42.7 2040.13 42.91 1990.83 42.91 1990.83 42.7"/><polyline class="cls-75" points="1990.83 42.48 2040.13 42.48 2040.13 42.7 1990.83 42.7 1990.83 42.48"/><polyline class="cls-76" points="1990.83 42.26 2040.13 42.26 2040.13 42.48 1990.83 42.48 1990.83 42.26"/><polyline class="cls-77" points="1990.83 42.05 2040.13 42.05 2040.13 42.26 1990.83 42.26 1990.83 42.05"/><polyline class="cls-78" points="1990.83 41.83 2040.13 41.83 2040.13 42.05 1990.83 42.05 1990.83 41.83"/><polyline class="cls-79" points="1990.83 41.61 2040.13 41.61 2040.13 41.83 1990.83 41.83 1990.83 41.61"/><polyline class="cls-80" points="1990.83 41.4 2040.13 41.4 2040.13 41.61 1990.83 41.61 1990.83 41.4"/><polyline class="cls-81" points="1990.83 41.18 2040.13 41.18 2040.13 41.4 1990.83 41.4 1990.83 41.18"/><polyline class="cls-82" points="1990.83 40.96 2040.13 40.96 2040.13 41.18 1990.83 41.18 1990.83 40.96"/><polyline class="cls-83" points="1990.83 40.74 2040.13 40.74 2040.13 40.96 1990.83 40.96 1990.83 40.74"/><polyline class="cls-84" points="1990.83 40.53 2040.13 40.53 2040.13 40.74 1990.83 40.74 1990.83 40.53"/><polyline class="cls-85" points="1990.83 40.31 2040.13 40.31 2040.13 40.53 1990.83 40.53 1990.83 40.31"/><polyline class="cls-86" points="1990.83 40.09 2040.13 40.09 2040.13 40.31 1990.83 40.31 1990.83 40.09"/><polyline class="cls-87" points="1990.83 39.88 2040.13 39.88 2040.13 40.09 1990.83 40.09 1990.83 39.88"/><polyline class="cls-88" points="1990.83 39.66 2040.13 39.66 2040.13 39.88 1990.83 39.88 1990.83 39.66"/><polyline class="cls-89" points="1990.83 39.44 2040.13 39.44 2040.13 39.66 1990.83 39.66 1990.83 39.44"/><polyline class="cls-90" points="1990.83 39.23 2040.13 39.23 2040.13 39.44 1990.83 39.44 1990.83 39.23"/><polyline class="cls-91" points="1990.83 39.01 2040.13 39.01 2040.13 39.23 1990.83 39.23 1990.83 39.01"/><polyline class="cls-92" points="1990.83 38.79 2040.13 38.79 2040.13 39.01 1990.83 39.01 1990.83 38.79"/><polyline class="cls-93" points="1990.83 38.58 2040.13 38.58 2040.13 38.79 1990.83 38.79 1990.83 38.58"/><polyline class="cls-94" points="1990.83 38.36 2040.13 38.36 2040.13 38.58 1990.83 38.58 1990.83 38.36"/><polyline class="cls-95" points="1990.83 38.14 2040.13 38.14 2040.13 38.36 1990.83 38.36 1990.83 38.14"/><polyline class="cls-96" points="1990.83 37.92 2040.13 37.92 2040.13 38.14 1990.83 38.14 1990.83 37.92"/><polyline class="cls-97" points="1990.83 37.71 2040.13 37.71 2040.13 37.92 1990.83 37.92 1990.83 37.71"/><polyline class="cls-98" points="1990.83 37.49 2040.13 37.49 2040.13 37.71 1990.83 37.71 1990.83 37.49"/><polyline class="cls-99" points="1990.83 37.27 2040.13 37.27 2040.13 37.49 1990.83 37.49 1990.83 37.27"/><polyline class="cls-100" points="1990.83 37.06 2040.13 37.06 2040.13 37.27 1990.83 37.27 1990.83 37.06"/><polyline class="cls-101" points="1990.83 36.84 2040.13 36.84 2040.13 37.06 1990.83 37.06 1990.83 36.84"/><polyline class="cls-102" points="1990.83 36.62 2040.13 36.62 2040.13 36.84 1990.83 36.84 1990.83 36.62"/><polyline class="cls-103" points="1990.83 36.41 2040.13 36.41 2040.13 36.62 1990.83 36.62 1990.83 36.41"/><polyline class="cls-104" points="1990.83 36.19 2040.13 36.19 2040.13 36.41 1990.83 36.41 1990.83 36.19"/><polyline class="cls-105" points="1990.83 35.97 2040.13 35.97 2040.13 36.19 1990.83 36.19 1990.83 35.97"/><polyline class="cls-106" points="1990.83 35.76 2040.13 35.76 2040.13 35.97 1990.83 35.97 1990.83 35.76"/><polyline class="cls-107" points="1990.83 35.54 2040.13 35.54 2040.13 35.76 1990.83 35.76 1990.83 35.54"/><polyline class="cls-108" points="1990.83 35.32 2040.13 35.32 2040.13 35.54 1990.83 35.54 1990.83 35.32"/><polyline class="cls-109" points="1990.83 35.1 2040.13 35.1 2040.13 35.32 1990.83 35.32 1990.83 35.1"/><polyline class="cls-110" points="1990.83 34.89 2040.13 34.89 2040.13 35.1 1990.83 35.1 1990.83 34.89"/><polyline class="cls-111" points="1990.83 34.67 2040.13 34.67 2040.13 34.89 1990.83 34.89 1990.83 34.67"/><polyline class="cls-112" points="1990.83 34.45 2040.13 34.45 2040.13 34.67 1990.83 34.67 1990.83 34.45"/><polyline class="cls-113" points="1990.83 34.24 2040.13 34.24 2040.13 34.45 1990.83 34.45 1990.83 34.24"/><polyline class="cls-114" points="1990.83 34.02 2040.13 34.02 2040.13 34.24 1990.83 34.24 1990.83 34.02"/><polyline class="cls-115" points="1990.83 33.8 2040.13 33.8 2040.13 34.02 1990.83 34.02 1990.83 33.8"/><polyline class="cls-116" points="1990.83 33.59 2040.13 33.59 2040.13 33.8 1990.83 33.8 1990.83 33.59"/><polyline class="cls-117" points="1990.83 33.37 2040.13 33.37 2040.13 33.59 1990.83 33.59 1990.83 33.37"/><polyline class="cls-118" points="1990.83 33.15 2040.13 33.15 2040.13 33.37 1990.83 33.37 1990.83 33.15"/><polyline class="cls-119" points="1990.83 32.94 2040.13 32.94 2040.13 33.15 1990.83 33.15 1990.83 32.94"/><polyline class="cls-120" points="1990.83 32.72 2040.13 32.72 2040.13 32.94 1990.83 32.94 1990.83 32.72"/><polyline class="cls-121" points="1990.83 32.5 2040.13 32.5 2040.13 32.72 1990.83 32.72 1990.83 32.5"/><polyline class="cls-122" points="1990.83 32.28 2040.13 32.28 2040.13 32.5 1990.83 32.5 1990.83 32.28"/><polyline class="cls-123" points="1990.83 32.07 2040.13 32.07 2040.13 32.28 1990.83 32.28 1990.83 32.07"/><polyline class="cls-124" points="1990.83 31.85 2040.13 31.85 2040.13 32.07 1990.83 32.07 1990.83 31.85"/><polyline class="cls-125" points="1990.83 31.64 2040.13 31.64 2040.13 31.85 1990.83 31.85 1990.83 31.64"/><polyline class="cls-126" points="1990.83 31.42 2040.13 31.42 2040.13 31.64 1990.83 31.64 1990.83 31.42"/><polyline class="cls-127" points="1990.83 31.2 2040.13 31.2 2040.13 31.42 1990.83 31.42 1990.83 31.2"/><polyline class="cls-128" points="1990.83 30.98 2040.13 30.98 2040.13 31.2 1990.83 31.2 1990.83 30.98"/><polyline class="cls-129" points="1990.83 30.77 2040.13 30.77 2040.13 30.98 1990.83 30.98 1990.83 30.77"/><polyline class="cls-130" points="1990.83 30.55 2040.13 30.55 2040.13 30.77 1990.83 30.77 1990.83 30.55"/><polyline class="cls-131" points="1990.83 30.33 2040.13 30.33 2040.13 30.55 1990.83 30.55 1990.83 30.33"/><polyline class="cls-132" points="1990.83 30.12 2040.13 30.12 2040.13 30.33 1990.83 30.33 1990.83 30.12"/><polyline class="cls-133" points="1990.83 29.9 2040.13 29.9 2040.13 30.12 1990.83 30.12 1990.83 29.9"/><polyline class="cls-134" points="1990.83 29.68 2040.13 29.68 2040.13 29.9 1990.83 29.9 1990.83 29.68"/><polyline class="cls-135" points="1990.83 29.47 2040.13 29.47 2040.13 29.68 1990.83 29.68 1990.83 29.47"/><polyline class="cls-136" points="1990.83 29.25 2040.13 29.25 2040.13 29.47 1990.83 29.47 1990.83 29.25"/><polyline class="cls-137" points="1990.83 29.03 2040.13 29.03 2040.13 29.25 1990.83 29.25 1990.83 29.03"/><polyline class="cls-138" points="1990.83 28.82 2040.13 28.82 2040.13 29.03 1990.83 29.03 1990.83 28.82"/><polyline class="cls-139" points="1990.83 28.6 2040.13 28.6 2040.13 28.82 1990.83 28.82 1990.83 28.6"/><polyline class="cls-140" points="1990.83 28.38 2040.13 28.38 2040.13 28.6 1990.83 28.6 1990.83 28.38"/><polyline class="cls-141" points="1990.83 28.16 2040.13 28.16 2040.13 28.38 1990.83 28.38 1990.83 28.16"/><polyline class="cls-142" points="1990.83 27.95 2040.13 27.95 2040.13 28.16 1990.83 28.16 1990.83 27.95"/><polyline class="cls-143" points="1990.83 27.73 2040.13 27.73 2040.13 27.95 1990.83 27.95 1990.83 27.73"/><polyline class="cls-144" points="1990.83 27.51 2040.13 27.51 2040.13 27.73 1990.83 27.73 1990.83 27.51"/><polyline class="cls-145" points="1990.83 27.3 2040.13 27.3 2040.13 27.51 1990.83 27.51 1990.83 27.3"/><polyline class="cls-146" points="1990.83 27.08 2040.13 27.08 2040.13 27.3 1990.83 27.3 1990.83 27.08"/><polyline class="cls-147" points="1990.83 26.86 2040.13 26.86 2040.13 27.08 1990.83 27.08 1990.83 26.86"/><polyline class="cls-148" points="1990.83 26.65 2040.13 26.65 2040.13 26.86 1990.83 26.86 1990.83 26.65"/><polyline class="cls-149" points="1990.83 26.43 2040.13 26.43 2040.13 26.65 1990.83 26.65 1990.83 26.43"/><polyline class="cls-150" points="1990.83 26.21 2040.13 26.21 2040.13 26.43 1990.83 26.43 1990.83 26.21"/><polyline class="cls-151" points="1990.83 26 2040.13 26 2040.13 26.21 1990.83 26.21 1990.83 26"/><polyline class="cls-152" points="1990.83 25.78 2040.13 25.78 2040.13 26 1990.83 26 1990.83 25.78"/><polyline class="cls-153" points="1990.83 25.56 2040.13 25.56 2040.13 25.78 1990.83 25.78 1990.83 25.56"/><polyline class="cls-154" points="1990.83 25.34 2040.13 25.34 2040.13 25.56 1990.83 25.56 1990.83 25.34"/><polyline class="cls-155" points="1990.83 25.13 2040.13 25.13 2040.13 25.34 1990.83 25.34 1990.83 25.13"/><polyline class="cls-156" points="1990.83 24.91 2040.13 24.91 2040.13 25.13 1990.83 25.13 1990.83 24.91"/><polyline class="cls-157" points="1990.83 24.69 2040.13 24.69 2040.13 24.91 1990.83 24.91 1990.83 24.69"/><polyline class="cls-158" points="1990.83 24.48 2040.13 24.48 2040.13 24.69 1990.83 24.69 1990.83 24.48"/><polyline class="cls-159" points="1990.83 24.26 2040.13 24.26 2040.13 24.48 1990.83 24.48 1990.83 24.26"/><polyline class="cls-160" points="1990.83 24.04 2040.13 24.04 2040.13 24.26 1990.83 24.26 1990.83 24.04"/><polyline class="cls-161" points="1990.83 23.83 2040.13 23.83 2040.13 24.04 1990.83 24.04 1990.83 23.83"/><polyline class="cls-162" points="1990.83 23.61 2040.13 23.61 2040.13 23.83 1990.83 23.83 1990.83 23.61"/><polyline class="cls-163" points="1990.83 23.39 2040.13 23.39 2040.13 23.61 1990.83 23.61 1990.83 23.39"/><polyline class="cls-164" points="1990.83 23.18 2040.13 23.18 2040.13 23.39 1990.83 23.39 1990.83 23.18"/><polyline class="cls-165" points="1990.83 22.96 2040.13 22.96 2040.13 23.18 1990.83 23.18 1990.83 22.96"/><polyline class="cls-166" points="1990.83 22.74 2040.13 22.74 2040.13 22.96 1990.83 22.96 1990.83 22.74"/><polyline class="cls-167" points="1990.83 22.52 2040.13 22.52 2040.13 22.74 1990.83 22.74 1990.83 22.52"/><polyline class="cls-168" points="1990.83 22.31 2040.13 22.31 2040.13 22.52 1990.83 22.52 1990.83 22.31"/><polyline class="cls-169" points="1990.83 22.09 2040.13 22.09 2040.13 22.31 1990.83 22.31 1990.83 22.09"/><polyline class="cls-170" points="1990.83 21.88 2040.13 21.88 2040.13 22.09 1990.83 22.09 1990.83 21.88"/><polyline class="cls-171" points="1990.83 21.66 2040.13 21.66 2040.13 21.88 1990.83 21.88 1990.83 21.66"/><polyline class="cls-172" points="1990.83 21.44 2040.13 21.44 2040.13 21.66 1990.83 21.66 1990.83 21.44"/><polyline class="cls-173" points="1990.83 21.22 2040.13 21.22 2040.13 21.44 1990.83 21.44 1990.83 21.22"/><polyline class="cls-174" points="1990.83 21.01 2040.13 21.01 2040.13 21.22 1990.83 21.22 1990.83 21.01"/><polyline class="cls-175" points="1990.83 20.79 2040.13 20.79 2040.13 21.01 1990.83 21.01 1990.83 20.79"/><polyline class="cls-176" points="1990.83 20.57 2040.13 20.57 2040.13 20.79 1990.83 20.79 1990.83 20.57"/><polyline class="cls-177" points="1990.83 20.36 2040.13 20.36 2040.13 20.57 1990.83 20.57 1990.83 20.36"/><polyline class="cls-178" points="1990.83 20.14 2040.13 20.14 2040.13 20.36 1990.83 20.36 1990.83 20.14"/><polyline class="cls-179" points="1990.83 19.92 2040.13 19.92 2040.13 20.14 1990.83 20.14 1990.83 19.92"/><polyline class="cls-180" points="1990.83 19.71 2040.13 19.71 2040.13 19.92 1990.83 19.92 1990.83 19.71"/><polyline class="cls-181" points="1990.83 19.49 2040.13 19.49 2040.13 19.71 1990.83 19.71 1990.83 19.49"/><polyline class="cls-182" points="1990.83 19.27 2040.13 19.27 2040.13 19.49 1990.83 19.49 1990.83 19.27"/><polyline class="cls-183" points="1990.83 19.05 2040.13 19.05 2040.13 19.27 1990.83 19.27 1990.83 19.05"/><polyline class="cls-184" points="1990.83 18.84 2040.13 18.84 2040.13 19.05 1990.83 19.05 1990.83 18.84"/><polyline class="cls-185" points="1990.83 18.62 2040.13 18.62 2040.13 18.84 1990.83 18.84 1990.83 18.62"/><polyline class="cls-186" points="1990.83 18.4 2040.13 18.4 2040.13 18.62 1990.83 18.62 1990.83 18.4"/><polyline class="cls-187" points="1990.83 18.19 2040.13 18.19 2040.13 18.4 1990.83 18.4 1990.83 18.19"/><polyline class="cls-188" points="1990.83 17.97 2040.13 17.97 2040.13 18.19 1990.83 18.19 1990.83 17.97"/><polyline class="cls-189" points="1990.83 17.75 2040.13 17.75 2040.13 17.97 1990.83 17.97 1990.83 17.75"/><polyline class="cls-190" points="1990.83 17.54 2040.13 17.54 2040.13 17.75 1990.83 17.75 1990.83 17.54"/><polyline class="cls-191" points="1990.83 17.32 2040.13 17.32 2040.13 17.54 1990.83 17.54 1990.83 17.32"/><polyline class="cls-192" points="1990.83 17.1 2040.13 17.1 2040.13 17.32 1990.83 17.32 1990.83 17.1"/><polyline class="cls-193" points="1990.83 16.89 2040.13 16.89 2040.13 17.1 1990.83 17.1 1990.83 16.89"/><polyline class="cls-194" points="1990.83 16.67 2040.13 16.67 2040.13 16.89 1990.83 16.89 1990.83 16.67"/><polyline class="cls-195" points="1990.83 16.45 2040.13 16.45 2040.13 16.67 1990.83 16.67 1990.83 16.45"/><polyline class="cls-196" points="1990.83 16.24 2040.13 16.24 2040.13 16.45 1990.83 16.45 1990.83 16.24"/><polyline class="cls-197" points="1990.83 16.02 2040.13 16.02 2040.13 16.24 1990.83 16.24 1990.83 16.02"/><polyline class="cls-198" points="1990.83 15.8 2040.13 15.8 2040.13 16.02 1990.83 16.02 1990.83 15.8"/><polyline class="cls-199" points="1990.83 15.59 2040.13 15.59 2040.13 15.8 1990.83 15.8 1990.83 15.59"/><polyline class="cls-200" points="1990.83 15.37 2040.13 15.37 2040.13 15.59 1990.83 15.59 1990.83 15.37"/><polyline class="cls-201" points="1990.83 15.15 2040.13 15.15 2040.13 15.37 1990.83 15.37 1990.83 15.15"/><polyline class="cls-202" points="1990.83 14.93 2040.13 14.93 2040.13 15.15 1990.83 15.15 1990.83 14.93"/><polyline class="cls-203" points="1990.83 14.72 2040.13 14.72 2040.13 14.93 1990.83 14.93 1990.83 14.72"/><polyline class="cls-204" points="1990.83 14.5 2040.13 14.5 2040.13 14.72 1990.83 14.72 1990.83 14.5"/><polyline class="cls-205" points="1990.83 14.28 2040.13 14.28 2040.13 14.5 1990.83 14.5 1990.83 14.28"/><polyline class="cls-206" points="1990.83 14.07 2040.13 14.07 2040.13 14.28 1990.83 14.28 1990.83 14.07"/><polyline class="cls-207" points="1990.83 13.85 2040.13 13.85 2040.13 14.07 1990.83 14.07 1990.83 13.85"/><polyline class="cls-208" points="1990.83 13.63 2040.13 13.63 2040.13 13.85 1990.83 13.85 1990.83 13.63"/><polyline class="cls-209" points="1990.83 13.42 2040.13 13.42 2040.13 13.63 1990.83 13.63 1990.83 13.42"/><polyline class="cls-209" points="1990.83 13.2 2040.13 13.2 2040.13 13.42 1990.83 13.42 1990.83 13.2"/><polyline class="cls-210" points="1990.83 12.98 2040.13 12.98 2040.13 13.2 1990.83 13.2 1990.83 12.98"/><polyline class="cls-211" points="1990.83 12.77 2040.13 12.77 2040.13 12.98 1990.83 12.98 1990.83 12.77"/><polyline class="cls-212" points="1990.83 12.55 2040.13 12.55 2040.13 12.77 1990.83 12.77 1990.83 12.55"/><polyline class="cls-213" points="1990.83 12.33 2040.13 12.33 2040.13 12.55 1990.83 12.55 1990.83 12.33"/><polyline class="cls-214" points="1990.83 12.12 2040.13 12.12 2040.13 12.33 1990.83 12.33 1990.83 12.12"/><polyline class="cls-215" points="1990.83 11.9 2040.13 11.9 2040.13 12.12 1990.83 12.12 1990.83 11.9"/><polyline class="cls-216" points="1990.83 11.68 2040.13 11.68 2040.13 11.9 1990.83 11.9 1990.83 11.68"/><polyline class="cls-217" points="1990.83 11.46 2040.13 11.46 2040.13 11.68 1990.83 11.68 1990.83 11.46"/><polyline class="cls-218" points="1990.83 11.25 2040.13 11.25 2040.13 11.46 1990.83 11.46 1990.83 11.25"/><polyline class="cls-219" points="1990.83 11.03 2040.13 11.03 2040.13 11.25 1990.83 11.25 1990.83 11.03"/><polyline class="cls-220" points="1990.83 10.81 2040.13 10.81 2040.13 11.03 1990.83 11.03 1990.83 10.81"/><polyline class="cls-221" points="1990.83 10.6 2040.13 10.6 2040.13 10.81 1990.83 10.81 1990.83 10.6"/><polyline class="cls-222" points="1990.83 10.38 2040.13 10.38 2040.13 10.6 1990.83 10.6 1990.83 10.38"/><polyline class="cls-223" points="1990.83 10.16 2040.13 10.16 2040.13 10.38 1990.83 10.38 1990.83 10.16"/><polyline class="cls-224" points="1990.83 9.95 2040.13 9.95 2040.13 10.16 1990.83 10.16 1990.83 9.95"/><polyline class="cls-225" points="1990.83 9.73 2040.13 9.73 2040.13 9.95 1990.83 9.95 1990.83 9.73"/><polyline class="cls-226" points="1990.83 9.51 2040.13 9.51 2040.13 9.73 1990.83 9.73 1990.83 9.51"/><polyline class="cls-227" points="1990.83 9.29 2040.13 9.29 2040.13 9.51 1990.83 9.51 1990.83 9.29"/><polyline class="cls-228" points="1990.83 9.08 2040.13 9.08 2040.13 9.29 1990.83 9.29 1990.83 9.08"/><polyline class="cls-229" points="1990.83 8.86 2040.13 8.86 2040.13 9.08 1990.83 9.08 1990.83 8.86"/><polyline class="cls-230" points="1990.83 8.64 2040.13 8.64 2040.13 8.86 1990.83 8.86 1990.83 8.64"/><polyline class="cls-230" points="2040.13 8.64 1990.83 8.64 2040.13 8.64"/></g></g><rect class="cls-80" x="2040.13" y="107.25" width="49.3" height="49.3"/><g class="cls-231"><g class="cls-231"><polyline class="cls-232" points="2089.43 156.79 2040.13 156.79 2040.13 156.46 2089.43 156.46 2089.43 156.79"/><polyline class="cls-233" points="2089.43 157.11 2040.13 157.11 2040.13 156.79 2089.43 156.79 2089.43 157.11"/><polyline class="cls-234" points="2089.43 157.44 2040.13 157.44 2040.13 157.11 2089.43 157.11 2089.43 157.44"/><polyline class="cls-235" points="2089.43 157.76 2040.13 157.76 2040.13 157.44 2089.43 157.44 2089.43 157.76"/><polyline class="cls-236" points="2089.43 158.09 2040.13 158.09 2040.13 157.76 2089.43 157.76 2089.43 158.09"/><polyline class="cls-237" points="2089.43 158.41 2040.13 158.41 2040.13 158.09 2089.43 158.09 2089.43 158.41"/><polyline class="cls-238" points="2089.43 158.74 2040.13 158.74 2040.13 158.41 2089.43 158.41 2089.43 158.74"/><polyline class="cls-239" points="2089.43 159.06 2040.13 159.06 2040.13 158.74 2089.43 158.74 2089.43 159.06"/><polyline class="cls-90" points="2089.43 159.39 2040.13 159.39 2040.13 159.06 2089.43 159.06 2089.43 159.39"/><polyline class="cls-240" points="2089.43 159.71 2040.13 159.71 2040.13 159.39 2089.43 159.39 2089.43 159.71"/><polyline class="cls-241" points="2089.43 160.04 2040.13 160.04 2040.13 159.71 2089.43 159.71 2089.43 160.04"/><polyline class="cls-242" points="2089.43 160.36 2040.13 160.36 2040.13 160.04 2089.43 160.04 2089.43 160.36"/><polyline class="cls-243" points="2089.43 160.69 2040.13 160.69 2040.13 160.36 2089.43 160.36 2089.43 160.69"/><polyline class="cls-244" points="2089.43 161.01 2040.13 161.01 2040.13 160.69 2089.43 160.69 2089.43 161.01"/><polyline class="cls-97" points="2089.43 161.34 2040.13 161.34 2040.13 161.01 2089.43 161.01 2089.43 161.34"/><polyline class="cls-99" points="2089.43 161.66 2040.13 161.66 2040.13 161.34 2089.43 161.34 2089.43 161.66"/><polyline class="cls-100" points="2089.43 161.99 2040.13 161.99 2040.13 161.66 2089.43 161.66 2089.43 161.99"/><polyline class="cls-245" points="2089.43 162.31 2040.13 162.31 2040.13 161.99 2089.43 161.99 2089.43 162.31"/><polyline class="cls-246" points="2089.43 162.64 2040.13 162.64 2040.13 162.31 2089.43 162.31 2089.43 162.64"/><polyline class="cls-247" points="2089.43 162.96 2040.13 162.96 2040.13 162.64 2089.43 162.64 2089.43 162.96"/><polyline class="cls-104" points="2089.43 163.29 2040.13 163.29 2040.13 162.96 2089.43 162.96 2089.43 163.29"/><polyline class="cls-105" points="2089.43 163.61 2040.13 163.61 2040.13 163.29 2089.43 163.29 2089.43 163.61"/><polyline class="cls-248" points="2089.43 163.94 2040.13 163.94 2040.13 163.61 2089.43 163.61 2089.43 163.94"/><polyline class="cls-249" points="2089.43 164.26 2040.13 164.26 2040.13 163.94 2089.43 163.94 2089.43 164.26"/><polyline class="cls-250" points="2089.43 164.59 2040.13 164.59 2040.13 164.26 2089.43 164.26 2089.43 164.59"/><polyline class="cls-251" points="2089.43 164.91 2040.13 164.91 2040.13 164.59 2089.43 164.59 2089.43 164.91"/><polyline class="cls-111" points="2089.43 165.24 2040.13 165.24 2040.13 164.91 2089.43 164.91 2089.43 165.24"/><polyline class="cls-112" points="2089.43 165.56 2040.13 165.56 2040.13 165.24 2089.43 165.24 2089.43 165.56"/><polyline class="cls-113" points="2089.43 165.89 2040.13 165.89 2040.13 165.56 2089.43 165.56 2089.43 165.89"/><polyline class="cls-252" points="2089.43 166.21 2040.13 166.21 2040.13 165.89 2089.43 165.89 2089.43 166.21"/><polyline class="cls-253" points="2089.43 166.54 2040.13 166.54 2040.13 166.21 2089.43 166.21 2089.43 166.54"/><polyline class="cls-254" points="2089.43 166.86 2040.13 166.86 2040.13 166.54 2089.43 166.54 2089.43 166.86"/><polyline class="cls-255" points="2089.43 167.19 2040.13 167.19 2040.13 166.86 2089.43 166.86 2089.43 167.19"/><polyline class="cls-119" points="2089.43 167.51 2040.13 167.51 2040.13 167.19 2089.43 167.19 2089.43 167.51"/><polyline class="cls-120" points="2089.43 167.84 2040.13 167.84 2040.13 167.51 2089.43 167.51 2089.43 167.84"/><polyline class="cls-121" points="2089.43 168.16 2040.13 168.16 2040.13 167.84 2089.43 167.84 2089.43 168.16"/><polyline class="cls-122" points="2089.43 168.49 2040.13 168.49 2040.13 168.16 2089.43 168.16 2089.43 168.49"/><polyline class="cls-2" points="2089.43 168.81 2040.13 168.81 2040.13 168.49 2089.43 168.49 2089.43 168.81"/><polyline class="cls-256" points="2089.43 169.14 2040.13 169.14 2040.13 168.81 2089.43 168.81 2089.43 169.14"/><polyline class="cls-257" points="2089.43 169.46 2040.13 169.46 2040.13 169.14 2089.43 169.14 2089.43 169.46"/><polyline class="cls-258" points="2089.43 169.79 2040.13 169.79 2040.13 169.46 2089.43 169.46 2089.43 169.79"/><polyline class="cls-128" points="2089.43 170.11 2040.13 170.11 2040.13 169.79 2089.43 169.79 2089.43 170.11"/><polyline class="cls-129" points="2089.43 170.44 2040.13 170.44 2040.13 170.11 2089.43 170.11 2089.43 170.44"/><polyline class="cls-130" points="2089.43 170.76 2040.13 170.76 2040.13 170.44 2089.43 170.44 2089.43 170.76"/><polyline class="cls-131" points="2089.43 171.09 2040.13 171.09 2040.13 170.76 2089.43 170.76 2089.43 171.09"/><polyline class="cls-132" points="2089.43 171.41 2040.13 171.41 2040.13 171.09 2089.43 171.09 2089.43 171.41"/><polyline class="cls-133" points="2089.43 171.74 2040.13 171.74 2040.13 171.41 2089.43 171.41 2089.43 171.74"/><polyline class="cls-259" points="2089.43 172.06 2040.13 172.06 2040.13 171.74 2089.43 171.74 2089.43 172.06"/><polyline class="cls-260" points="2089.43 172.38 2040.13 172.38 2040.13 172.06 2089.43 172.06 2089.43 172.38"/><polyline class="cls-137" points="2089.43 172.71 2040.13 172.71 2040.13 172.38 2089.43 172.38 2089.43 172.71"/><polyline class="cls-138" points="2089.43 173.03 2040.13 173.03 2040.13 172.71 2089.43 172.71 2089.43 173.03"/><polyline class="cls-139" points="2089.43 173.36 2040.13 173.36 2040.13 173.03 2089.43 173.03 2089.43 173.36"/><polyline class="cls-140" points="2089.43 173.69 2040.13 173.69 2040.13 173.36 2089.43 173.36 2089.43 173.69"/><polyline class="cls-141" points="2089.43 174.01 2040.13 174.01 2040.13 173.69 2089.43 173.69 2089.43 174.01"/><polyline class="cls-142" points="2089.43 174.34 2040.13 174.34 2040.13 174.01 2089.43 174.01 2089.43 174.34"/><polyline class="cls-143" points="2089.43 174.66 2040.13 174.66 2040.13 174.34 2089.43 174.34 2089.43 174.66"/><polyline class="cls-144" points="2089.43 174.99 2040.13 174.99 2040.13 174.66 2089.43 174.66 2089.43 174.99"/><polyline class="cls-145" points="2089.43 175.31 2040.13 175.31 2040.13 174.99 2089.43 174.99 2089.43 175.31"/><polyline class="cls-261" points="2089.43 175.63 2040.13 175.63 2040.13 175.31 2089.43 175.31 2089.43 175.63"/><polyline class="cls-262" points="2089.43 175.96 2040.13 175.96 2040.13 175.63 2089.43 175.63 2089.43 175.96"/><polyline class="cls-149" points="2089.43 176.28 2040.13 176.28 2040.13 175.96 2089.43 175.96 2089.43 176.28"/><polyline class="cls-150" points="2089.43 176.61 2040.13 176.61 2040.13 176.28 2089.43 176.28 2089.43 176.61"/><polyline class="cls-151" points="2089.43 176.93 2040.13 176.93 2040.13 176.61 2089.43 176.61 2089.43 176.93"/><polyline class="cls-152" points="2089.43 177.26 2040.13 177.26 2040.13 176.93 2089.43 176.93 2089.43 177.26"/><polyline class="cls-153" points="2089.43 177.58 2040.13 177.58 2040.13 177.26 2089.43 177.26 2089.43 177.58"/><polyline class="cls-154" points="2089.43 177.91 2040.13 177.91 2040.13 177.58 2089.43 177.58 2089.43 177.91"/><polyline class="cls-155" points="2089.43 178.23 2040.13 178.23 2040.13 177.91 2089.43 177.91 2089.43 178.23"/><polyline class="cls-156" points="2089.43 178.56 2040.13 178.56 2040.13 178.23 2089.43 178.23 2089.43 178.56"/><polyline class="cls-157" points="2089.43 178.88 2040.13 178.88 2040.13 178.56 2089.43 178.56 2089.43 178.88"/><polyline class="cls-158" points="2089.43 179.21 2040.13 179.21 2040.13 178.88 2089.43 178.88 2089.43 179.21"/><polyline class="cls-159" points="2089.43 179.53 2040.13 179.53 2040.13 179.21 2089.43 179.21 2089.43 179.53"/><polyline class="cls-160" points="2089.43 179.86 2040.13 179.86 2040.13 179.53 2089.43 179.53 2089.43 179.86"/><polyline class="cls-161" points="2089.43 180.18 2040.13 180.18 2040.13 179.86 2089.43 179.86 2089.43 180.18"/><polyline class="cls-162" points="2089.43 180.51 2040.13 180.51 2040.13 180.18 2089.43 180.18 2089.43 180.51"/><polyline class="cls-163" points="2089.43 180.83 2040.13 180.83 2040.13 180.51 2089.43 180.51 2089.43 180.83"/><polyline class="cls-164" points="2089.43 181.16 2040.13 181.16 2040.13 180.83 2089.43 180.83 2089.43 181.16"/><polyline class="cls-263" points="2089.43 181.48 2040.13 181.48 2040.13 181.16 2089.43 181.16 2089.43 181.48"/><polyline class="cls-264" points="2089.43 181.81 2040.13 181.81 2040.13 181.48 2089.43 181.48 2089.43 181.81"/><polyline class="cls-168" points="2089.43 182.13 2040.13 182.13 2040.13 181.81 2089.43 181.81 2089.43 182.13"/><polyline class="cls-169" points="2089.43 182.46 2040.13 182.46 2040.13 182.13 2089.43 182.13 2089.43 182.46"/><polyline class="cls-170" points="2089.43 182.78 2040.13 182.78 2040.13 182.46 2089.43 182.46 2089.43 182.78"/><polyline class="cls-171" points="2089.43 183.11 2040.13 183.11 2040.13 182.78 2089.43 182.78 2089.43 183.11"/><polyline class="cls-172" points="2089.43 183.43 2040.13 183.43 2040.13 183.11 2089.43 183.11 2089.43 183.43"/><polyline class="cls-173" points="2089.43 183.76 2040.13 183.76 2040.13 183.43 2089.43 183.43 2089.43 183.76"/><polyline class="cls-265" points="2089.43 184.08 2040.13 184.08 2040.13 183.76 2089.43 183.76 2089.43 184.08"/><polyline class="cls-266" points="2089.43 184.41 2040.13 184.41 2040.13 184.08 2089.43 184.08 2089.43 184.41"/><polyline class="cls-267" points="2089.43 184.73 2040.13 184.73 2040.13 184.41 2089.43 184.41 2089.43 184.73"/><polyline class="cls-268" points="2089.43 185.06 2040.13 185.06 2040.13 184.73 2089.43 184.73 2089.43 185.06"/><polyline class="cls-269" points="2089.43 185.38 2040.13 185.38 2040.13 185.06 2089.43 185.06 2089.43 185.38"/><polyline class="cls-270" points="2089.43 185.71 2040.13 185.71 2040.13 185.38 2089.43 185.38 2089.43 185.71"/><polyline class="cls-271" points="2089.43 186.03 2040.13 186.03 2040.13 185.71 2089.43 185.71 2089.43 186.03"/><polyline class="cls-272" points="2089.43 186.36 2040.13 186.36 2040.13 186.03 2089.43 186.03 2089.43 186.36"/><polyline class="cls-273" points="2089.43 186.68 2040.13 186.68 2040.13 186.36 2089.43 186.36 2089.43 186.68"/><polyline class="cls-274" points="2089.43 187.01 2040.13 187.01 2040.13 186.68 2089.43 186.68 2089.43 187.01"/><polyline class="cls-275" points="2089.43 187.33 2040.13 187.33 2040.13 187.01 2089.43 187.01 2089.43 187.33"/><polyline class="cls-185" points="2089.43 187.66 2040.13 187.66 2040.13 187.33 2089.43 187.33 2089.43 187.66"/><polyline class="cls-186" points="2089.43 187.98 2040.13 187.98 2040.13 187.66 2089.43 187.66 2089.43 187.98"/><polyline class="cls-187" points="2089.43 188.31 2040.13 188.31 2040.13 187.98 2089.43 187.98 2089.43 188.31"/><polyline class="cls-188" points="2089.43 188.63 2040.13 188.63 2040.13 188.31 2089.43 188.31 2089.43 188.63"/><polyline class="cls-189" points="2089.43 188.96 2040.13 188.96 2040.13 188.63 2089.43 188.63 2089.43 188.96"/><polyline class="cls-190" points="2089.43 189.28 2040.13 189.28 2040.13 188.96 2089.43 188.96 2089.43 189.28"/><polyline class="cls-191" points="2089.43 189.61 2040.13 189.61 2040.13 189.28 2089.43 189.28 2089.43 189.61"/><polyline class="cls-192" points="2089.43 189.93 2040.13 189.93 2040.13 189.61 2089.43 189.61 2089.43 189.93"/><polyline class="cls-193" points="2089.43 190.26 2040.13 190.26 2040.13 189.93 2089.43 189.93 2089.43 190.26"/><polyline class="cls-194" points="2089.43 190.58 2040.13 190.58 2040.13 190.26 2089.43 190.26 2089.43 190.58"/><polyline class="cls-195" points="2089.43 190.91 2040.13 190.91 2040.13 190.58 2089.43 190.58 2089.43 190.91"/><polyline class="cls-276" points="2089.43 191.23 2040.13 191.23 2040.13 190.91 2089.43 190.91 2089.43 191.23"/><polyline class="cls-277" points="2089.43 191.56 2040.13 191.56 2040.13 191.23 2089.43 191.23 2089.43 191.56"/><polyline class="cls-278" points="2089.43 191.88 2040.13 191.88 2040.13 191.56 2089.43 191.56 2089.43 191.88"/><polyline class="cls-279" points="2089.43 192.21 2040.13 192.21 2040.13 191.88 2089.43 191.88 2089.43 192.21"/><polyline class="cls-280" points="2089.43 192.53 2040.13 192.53 2040.13 192.21 2089.43 192.21 2089.43 192.53"/><polyline class="cls-281" points="2089.43 192.85 2040.13 192.85 2040.13 192.53 2089.43 192.53 2089.43 192.85"/><polyline class="cls-201" points="2089.43 193.18 2040.13 193.18 2040.13 192.85 2089.43 192.85 2089.43 193.18"/><polyline class="cls-202" points="2089.43 193.5 2040.13 193.5 2040.13 193.18 2089.43 193.18 2089.43 193.5"/><polyline class="cls-203" points="2089.43 193.83 2040.13 193.83 2040.13 193.5 2089.43 193.5 2089.43 193.83"/><polyline class="cls-204" points="2089.43 194.16 2040.13 194.16 2040.13 193.83 2089.43 193.83 2089.43 194.16"/><polyline class="cls-205" points="2089.43 194.48 2040.13 194.48 2040.13 194.16 2089.43 194.16 2089.43 194.48"/><polyline class="cls-206" points="2089.43 194.81 2040.13 194.81 2040.13 194.48 2089.43 194.48 2089.43 194.81"/><polyline class="cls-282" points="2089.43 195.13 2040.13 195.13 2040.13 194.81 2089.43 194.81 2089.43 195.13"/><polyline class="cls-283" points="2089.43 195.45 2040.13 195.45 2040.13 195.13 2089.43 195.13 2089.43 195.45"/><polyline class="cls-284" points="2089.43 195.78 2040.13 195.78 2040.13 195.45 2089.43 195.45 2089.43 195.78"/><polyline class="cls-209" points="2089.43 196.1 2040.13 196.1 2040.13 195.78 2089.43 195.78 2089.43 196.1"/><polyline class="cls-209" points="2089.43 196.43 2040.13 196.43 2040.13 196.1 2089.43 196.1 2089.43 196.43"/><polyline class="cls-210" points="2089.43 196.75 2040.13 196.75 2040.13 196.43 2089.43 196.43 2089.43 196.75"/><polyline class="cls-211" points="2089.43 197.08 2040.13 197.08 2040.13 196.75 2089.43 196.75 2089.43 197.08"/><polyline class="cls-212" points="2089.43 197.4 2040.13 197.4 2040.13 197.08 2089.43 197.08 2089.43 197.4"/><polyline class="cls-213" points="2089.43 197.73 2040.13 197.73 2040.13 197.4 2089.43 197.4 2089.43 197.73"/><polyline class="cls-213" points="2089.43 198.05 2040.13 198.05 2040.13 197.73 2089.43 197.73 2089.43 198.05"/><polyline class="cls-214" points="2089.43 198.38 2040.13 198.38 2040.13 198.05 2089.43 198.05 2089.43 198.38"/><polyline class="cls-215" points="2089.43 198.7 2040.13 198.7 2040.13 198.38 2089.43 198.38 2089.43 198.7"/><polyline class="cls-216" points="2089.43 199.03 2040.13 199.03 2040.13 198.7 2089.43 198.7 2089.43 199.03"/><polyline class="cls-217" points="2089.43 199.35 2040.13 199.35 2040.13 199.03 2089.43 199.03 2089.43 199.35"/><polyline class="cls-217" points="2089.43 199.68 2040.13 199.68 2040.13 199.35 2089.43 199.35 2089.43 199.68"/><polyline class="cls-218" points="2089.43 200 2040.13 200 2040.13 199.68 2089.43 199.68 2089.43 200"/><polyline class="cls-219" points="2089.43 200.33 2040.13 200.33 2040.13 200 2089.43 200 2089.43 200.33"/><polyline class="cls-220" points="2089.43 200.65 2040.13 200.65 2040.13 200.33 2089.43 200.33 2089.43 200.65"/><polyline class="cls-285" points="2089.43 200.98 2040.13 200.98 2040.13 200.65 2089.43 200.65 2089.43 200.98"/><polyline class="cls-221" points="2089.43 201.3 2040.13 201.3 2040.13 200.98 2089.43 200.98 2089.43 201.3"/><polyline class="cls-222" points="2089.43 201.63 2040.13 201.63 2040.13 201.3 2089.43 201.3 2089.43 201.63"/><polyline class="cls-223" points="2089.43 201.95 2040.13 201.95 2040.13 201.63 2089.43 201.63 2089.43 201.95"/><polyline class="cls-223" points="2089.43 202.28 2040.13 202.28 2040.13 201.95 2089.43 201.95 2089.43 202.28"/><polyline class="cls-224" points="2089.43 202.6 2040.13 202.6 2040.13 202.28 2089.43 202.28 2089.43 202.6"/><polyline class="cls-225" points="2089.43 202.93 2040.13 202.93 2040.13 202.6 2089.43 202.6 2089.43 202.93"/><polyline class="cls-286" points="2089.43 203.25 2040.13 203.25 2040.13 202.93 2089.43 202.93 2089.43 203.25"/><polyline class="cls-226" points="2089.43 203.58 2040.13 203.58 2040.13 203.25 2089.43 203.25 2089.43 203.58"/><polyline class="cls-227" points="2089.43 203.9 2040.13 203.9 2040.13 203.58 2089.43 203.58 2089.43 203.9"/><polyline class="cls-227" points="2089.43 204.23 2040.13 204.23 2040.13 203.9 2089.43 203.9 2089.43 204.23"/><polyline class="cls-228" points="2089.43 204.55 2040.13 204.55 2040.13 204.23 2089.43 204.23 2089.43 204.55"/><polyline class="cls-229" points="2089.43 204.88 2040.13 204.88 2040.13 204.55 2089.43 204.55 2089.43 204.88"/><polyline class="cls-229" points="2089.43 205.2 2040.13 205.2 2040.13 204.88 2089.43 204.88 2089.43 205.2"/><polyline class="cls-230" points="2089.43 205.53 2040.13 205.53 2040.13 205.2 2089.43 205.2 2089.43 205.53"/><polyline class="cls-230" points="2040.13 205.53 2089.43 205.53 2089.43 205.85 2040.13 205.85 2040.13 205.53"/></g></g><rect class="cls-4" x="1990.83" y="57.95" width="49.3" height="49.3"/><rect class="cls-287" x="1990.83" y="107.25" width="49.3" height="49.3"/><path class="cls-232" d="M-582.89,527.53v-37.3h-28.32v37.3h-26.07V432.89h26.07v34.49h28.32V432.89h26.08v94.64Z" transform="translate(637.28 -312.62)"/><path class="cls-232" d="M-497.23,529.49c-29.72,0-44.3-17.95-44.3-47.95,0-30.56,21.59-50.61,48.09-50.61,24.67,0,44.3,13.32,44.3,47.67C-449.14,509.44-470.31,529.49-497.23,529.49Zm1.83-74.73c-9.12,0-18.37,7-18.37,24.82,0,16.12,5.19,25.93,17.81,25.93,8.13,0,19.06-5.6,19.06-25.65C-476.9,463.31-482.93,454.76-495.4,454.76Z" transform="translate(637.28 -312.62)"/><path class="cls-232" d="M-395.44,529.49c-30.42,0-38.42-16.12-38.42-36.17V432.89h26.08v59.17c0,10.09,3.09,15.56,13.88,15.56,10.52,0,13.88-4.49,13.88-16.27V432.89h25.8V490C-354.22,517.43-370.07,529.49-395.44,529.49Z" transform="translate(637.28 -312.62)"/><path class="cls-232" d="M-315.53,529.35a90.54,90.54,0,0,1-19.49-2l1.41-23.83a66,66,0,0,0,20.18,3.37c6.31,0,10.38-2.67,10.38-7,0-13.74-35.33-5.61-35.33-38,0-18.78,14.44-30.84,39.39-30.84a113.92,113.92,0,0,1,17.25,1.54l-1.4,22.57A62,62,0,0,0-300,452.66c-7.29,0-10.37,2.94-10.37,6.59,0,11.92,35.33,7.29,35.33,36.87C-275,515.05-290.29,529.35-315.53,529.35Z" transform="translate(637.28 -312.62)"/><path class="cls-232" d="M-259.17,527.53V432.89h55.38V455h-29.3v13.32h27.76v21.31h-27.76V505h29.3v22.58Z" transform="translate(637.28 -312.62)"/><path class="cls-232" d="M-109.58,529.49c-29.72,0-44.3-17.95-44.3-47.95,0-30.56,21.59-50.61,48.09-50.61,24.67,0,44.3,13.32,44.3,47.67C-61.49,509.44-82.66,529.49-109.58,529.49Zm1.82-74.73c-9.11,0-18.36,7-18.36,24.82,0,16.12,5.19,25.93,17.8,25.93,8.13,0,19.07-5.6,19.07-25.65C-89.25,463.31-95.28,454.76-107.76,454.76Z" transform="translate(637.28 -312.62)"/><path class="cls-232" d="M-20.13,455.32v15.29H6.23v21.45H-20.13v35.47H-46.21V432.89h54v22.43Z" transform="translate(637.28 -312.62)"/><path class="cls-232" d="M102,528.79c-37.15,0-44.86-25.66-44.86-44.73,0-31.54,17.8-51.87,48.78-51.87a76.48,76.48,0,0,1,18.23,2.24L121.19,458a58.46,58.46,0,0,0-15.29-2.11c-12.33,0-20,8.56-20,23.84,0,16.4,6.31,25.23,21,25.23a42.4,42.4,0,0,0,14.3-2.66l3.08,23.27A76.25,76.25,0,0,1,102,528.79Z" transform="translate(637.28 -312.62)"/><path class="cls-232" d="M178.09,529.49c-29.72,0-44.3-17.95-44.3-47.95,0-30.56,21.59-50.61,48.09-50.61,24.67,0,44.3,13.32,44.3,47.67C226.18,509.44,205,529.49,178.09,529.49Zm1.83-74.73c-9.12,0-18.37,7-18.37,24.82,0,16.12,5.19,25.93,17.81,25.93,8.13,0,19.06-5.6,19.06-25.65C198.42,463.31,192.4,454.76,179.92,454.76Z" transform="translate(637.28 -312.62)"/><path class="cls-232" d="M326,527.53,320.82,496c-1-6.31-2-13.32-2.81-21.45h-.28c-1.54,8.27-3.36,16.12-5.75,24.82l-7.57,28.18H280l-7.43-25.1a191.7,191.7,0,0,1-6.17-27.9h-.28c-.84,9.39-1.82,16.54-2.8,23.69l-3.93,29.31H233.19l15.7-94.64h29.45l10,32.81a203.5,203.5,0,0,1,5,21.45h.28a154.72,154.72,0,0,1,5.47-21.87l10.09-32.39h28.6l15.56,94.64Z" transform="translate(637.28 -312.62)"/><path class="cls-232" d="M455,527.53,449.8,496c-1-6.31-2-13.32-2.8-21.45h-.29c-1.54,8.27-3.36,16.12-5.74,24.82l-7.57,28.18H409l-7.43-25.1a193,193,0,0,1-6.17-27.9h-.28c-.84,9.39-1.82,16.54-2.8,23.69l-3.93,29.31H362.18l15.7-94.64h29.44l9.95,32.81a201,201,0,0,1,5.05,21.45h.28a156.09,156.09,0,0,1,5.47-21.87l10.09-32.39h28.6l15.57,94.64Z" transform="translate(637.28 -312.62)"/><path class="cls-232" d="M533.2,529.49c-30.42,0-38.41-16.12-38.41-36.17V432.89h26.07v59.17c0,10.09,3.09,15.56,13.88,15.56,10.52,0,13.88-4.49,13.88-16.27V432.89h25.8V490C574.42,517.43,558.58,529.49,533.2,529.49Z" transform="translate(637.28 -312.62)"/><path class="cls-232" d="M644.79,527.53,629,495.14c-3.65-7.43-7-15-9.39-21.31a128.39,128.39,0,0,1,.7,15v38.7h-25.1V432.89h33.37l13.74,28.18c4.07,8.41,8.27,17,11.49,24.54a191.87,191.87,0,0,1-1-19.63V432.89h25.1v94.64Z" transform="translate(637.28 -312.62)"/><path class="cls-232" d="M699.44,527.53V432.89h26.08v94.64Z" transform="translate(637.28 -312.62)"/><path class="cls-232" d="M785.11,528.79c-37.16,0-44.87-25.66-44.87-44.73,0-31.54,17.81-51.87,48.79-51.87a76.48,76.48,0,0,1,18.23,2.24l-3,23.56A58.32,58.32,0,0,0,789,455.88c-12.34,0-20,8.56-20,23.84,0,16.4,6.31,25.23,21,25.23a42.31,42.31,0,0,0,14.3-2.66l3.09,23.27A76.25,76.25,0,0,1,785.11,528.79Z" transform="translate(637.28 -312.62)"/><path class="cls-232" d="M881,527.53l-4.91-15.43H846.93l-4.76,15.43h-25.8l30.84-94.64h29.87l32.38,94.64Zm-15.28-47.81a122.63,122.63,0,0,1-4.35-16.41h-.28a125.8,125.8,0,0,1-4.62,17.95l-3.23,10.37H869.5Z" transform="translate(637.28 -312.62)"/><path class="cls-232" d="M951.79,455.32v72.21H925.71V455.32H905.25V432.89h67v22.43Z" transform="translate(637.28 -312.62)"/><path class="cls-232" d="M984.88,527.53V432.89H1011v94.64Z" transform="translate(637.28 -312.62)"/><path class="cls-232" d="M1070.54,529.49c-29.72,0-44.3-17.95-44.3-47.95,0-30.56,21.59-50.61,48.08-50.61,24.68,0,44.31,13.32,44.31,47.67C1118.63,509.44,1097.46,529.49,1070.54,529.49Zm1.82-74.73c-9.11,0-18.36,7-18.36,24.82,0,16.12,5.18,25.93,17.8,25.93,8.13,0,19.07-5.6,19.07-25.65C1090.87,463.31,1084.84,454.76,1072.36,454.76Z" transform="translate(637.28 -312.62)"/><path class="cls-232" d="M1183.54,527.53l-15.84-32.39c-3.65-7.43-7-15-9.4-21.31a128.39,128.39,0,0,1,.7,15v38.7h-25.09V432.89h33.37L1181,461.07c4.07,8.41,8.28,17,11.5,24.54a191.87,191.87,0,0,1-1-19.63V432.89h25.1v94.64Z" transform="translate(637.28 -312.62)"/><path class="cls-230" d="M404.93,408l-5.18-31.54c-1-6.31-2-13.32-2.81-21.45h-.28c-1.54,8.27-3.36,16.12-5.75,24.81L383.34,408H359l-7.43-25.09a193.32,193.32,0,0,1-6.17-27.9h-.28c-.84,9.39-1.82,16.54-2.8,23.69L338.34,408H312.12l15.71-94.63h29.44l10,32.8a203.5,203.5,0,0,1,5,21.45h.28A154.72,154.72,0,0,1,378,345.7l10.09-32.38h28.6L432.27,408Z" transform="translate(637.28 -312.62)"/><path class="cls-230" d="M444.62,408V313.32H500v22.15H470.7v13.32h27.75V370.1H470.7v15.28H500V408Z" transform="translate(637.28 -312.62)"/><path class="cls-230" d="M546.69,408.65c-10.24,0-20.47-.28-30-.84V313.6c7.43-.42,20.32-.84,34.06-.84,27.62,0,47,11.35,47,45.56C597.72,390.71,577.39,408.65,546.69,408.65Zm2.66-73.88a43.67,43.67,0,0,0-6.59.28v50.61a27.71,27.71,0,0,0,6,.42c11.64,0,20.75-8,20.75-25.66C569.54,345.7,566.74,334.77,549.35,334.77Z" transform="translate(637.28 -312.62)"/><path class="cls-230" d="M610.46,408V313.32h26.08V408Z" transform="translate(637.28 -312.62)"/><path class="cls-230" d="M710.84,408l-4.9-15.42H676.78L672,408h-25.8l30.85-94.63h29.86L739.3,408Zm-15.28-47.81a122.07,122.07,0,0,1-4.34-16.4h-.28a127.26,127.26,0,0,1-4.63,17.95l-3.23,10.37h16.27Z" transform="translate(637.28 -312.62)"/><path class="cls-230" d="M806.64,408l-15-28.6-15,28.6H745.51L774.39,360,747.2,313.32h30.14l14.86,28,14.44-28h29.72l-26.78,47.1,30,47.53Z" transform="translate(637.28 -312.62)"/><path class="cls-230" d="M878.39,378.93c-.56,0-2.1,0-3.93-.14V408H848.39V313.32c8.69-.42,18.22-.7,28.6-.7,25.23,0,39.11,10.79,39.11,31.68C916.1,362.67,903.76,378.93,878.39,378.93ZM877,333.79a20.26,20.26,0,0,0-2.53.14v23.13a12.38,12.38,0,0,0,2,.14c6.74,0,12.76-4.21,12.76-12.06C889.18,339,886,333.79,877,333.79Z" transform="translate(637.28 -312.62)"/><path class="cls-230" d="M925.46,408V313.32h26.08v71.36h26.07V408Z" transform="translate(637.28 -312.62)"/><path class="cls-230" d="M1048.27,408l-4.91-15.42H1014.2L1009.43,408H983.64l30.84-94.63h29.86L1076.73,408ZM1033,360.14a120.61,120.61,0,0,1-4.35-16.4h-.28a124.58,124.58,0,0,1-4.63,17.95l-3.22,10.37h16.26Z" transform="translate(637.28 -312.62)"/><path class="cls-230" d="M1088.82,408V313.32h26.07V408Z" transform="translate(637.28 -312.62)"/><path d="M1183.84,408,1168,375.57c-3.65-7.43-7-15-9.4-21.31a128.29,128.29,0,0,1,.7,15V408h-25.09V313.32h33.36l13.74,28.18c4.07,8.41,8.28,17,11.5,24.53a191.87,191.87,0,0,1-1-19.63V313.32h25.09V408Z" transform="translate(637.28 -312.62)"/></svg>