<?xml version="1.0" encoding="UTF-8" standalone="no"?>
<svg
   xmlns:dc="http://purl.org/dc/elements/1.1/"
   xmlns:cc="http://creativecommons.org/ns#"
   xmlns:rdf="http://www.w3.org/1999/02/22-rdf-syntax-ns#"
   xmlns:svg="http://www.w3.org/2000/svg"
   xmlns="http://www.w3.org/2000/svg"
   viewBox="0 0 401.93332 401.94666"
   height="401.94666"
   width="401.93332"
   xml:space="preserve"
   id="svg2"
   version="1.1"><metadata
     id="metadata8"><rdf:RDF><cc:Work
         rdf:about=""><dc:format>image/svg+xml</dc:format><dc:type
           rdf:resource="http://purl.org/dc/dcmitype/StillImage" /></cc:Work></rdf:RDF></metadata><defs
     id="defs6" /><g
     transform="matrix(1.3333333,0,0,-1.3333333,0,401.94667)"
     id="g10"><g
       transform="scale(0.1)"
       id="g12"><path
         id="path14"
         style="fill:#231f20;fill-opacity:1;fill-rule:nonzero;stroke:none"
         d="M 0,3014.55 V 0 H 3014.49 V 3014.55 H 0" /><path
         id="path16"
         style="fill:#ffffff;fill-opacity:1;fill-rule:nonzero;stroke:none"
         d="m 481.434,1722.95 v -647.04 h 170.148 v 654.93 h 476.758 v 153.99 H 643.074 c -161.64,0 -161.64,-161.88 -161.64,-161.88" /><path
         id="path18"
         style="fill:#ffffff;fill-opacity:1;fill-rule:nonzero;stroke:none"
         d="m 2107.23,1229.9 v 654.93 h -170.15 v -647.08 c 0,0 0,-161.84 161.67,-161.84 h 485.33 v 153.99 h -476.85" /><path
         id="path20"
         style="fill:#ffffff;fill-opacity:1;fill-rule:nonzero;stroke:none"
         d="m 1379.46,2046.35 h -170.15 v -808.6 c 0,-161.84 159.57,-161.84 159.57,-161.84 h 487.15 v 153.99 h -476.57 v 500.94 h 476.57 v 153.99 h -476.57 v 161.52" /></g></g></svg>