<svg xmlns="http://www.w3.org/2000/svg" id="sterLogo" viewBox="0 0 91.1 37.2" style="fill:#008ccc">
    <style type="text/css">
        .st0 {
            clip-rule: evenodd;
            fill-rule: evenodd;
        }
    </style>
    <path d="M0 18.7L24.6.2l24.6 18.5-24.6 18.5L0 18.7zm24.6 15.8l21.1-15.8L24.6 2.9 3.5 18.7l21.1 15.8z" class="st0"></path>
    <path d="M16.8 17.4c-1-.9-1.9-1.6-1.9-2.6 0-.8.4-1.3 1.2-1.3.3 0 1.1.1 1.2 1.4.1 0 1.9-.2 2-.2-.2-1.9-1.4-3.1-3-3.1-2.2 0-3.4 1.2-3.4 3.2s1.4 3.1 2.6 4.1c1 .8 2 1.6 2 2.8 0 .8-.5 1.2-1.3 1.2s-1.3-.7-1.4-2c-.1 0-2 .3-2 .3.1 1.8 1.1 3.5 3.3 3.5 2.1 0 3.5-1.3 3.5-3.3-.2-1.7-1.6-2.9-2.8-4zM20 16.7V15h1.1v-2.6h2V15h1.3v1.7h-1.3v5.6c0 .5.2.8.7.8h.7v1.7c-.3.1-.5.1-1 .1-1.5 0-2.4-.7-2.4-2.2v-6H20zM33.2 24.7V15h1.9v1.1c.5-.8 1.3-1.3 2.3-1.3h.4v2.1c-.4-.1-.7-.2-1.3-.2-.7 0-1.3.4-1.3 1.3v6.7h-2zM29.8 21.9c0 1-.4 1.4-1.1 1.4s-1.1-.5-1.1-1.6v-1.4h4.2v-1.8c0-2.1-.8-3.6-3.1-3.6s-3.1 1.5-3.1 3.6v2.8c0 2.1.8 3.6 3.1 3.6 2.1 0 3-1.2 3.1-3.1h-2v.1zm-2.3-3.7c0-1.1.4-1.6 1.1-1.6s1.1.5 1.1 1.6v.5h-2.2v-.5z" class="st0"></path>
    <g>
        <path d="M57.9 17.4h-.5c-.5 0-.9.2-1.1.6v3.5h-1.4V16h1.4v.6c.3-.5.7-.7 1.2-.7.2 0 .3 0 .4.1v1.4zM61.1 21.5c-.8 0-1.4-.2-1.9-.7-.5-.5-.7-1.1-.7-1.9v-.1c0-.5.1-1 .3-1.4.2-.4.5-.8.9-1 .4-.2.8-.3 1.3-.3.7 0 1.3.2 1.7.7.4.5.6 1.1.6 2v.6h-3.4c0 .4.2.6.4.8.2.2.5.3.9.3.6 0 1-.2 1.3-.6l.7.8c-.2.3-.5.5-.9.7-.3 0-.7.1-1.2.1zm-.2-4.4c-.3 0-.5.1-.7.3-.2.2-.3.5-.3.8h2v-.1c0-.3-.1-.6-.3-.7-.1-.2-.4-.3-.7-.3zM66.4 20.4c.3 0 .5-.1.6-.2.2-.1.3-.3.3-.6h1.3c0 .4-.1.7-.3 1s-.5.5-.8.7c-.3.2-.7.3-1.1.3-.8 0-1.4-.2-1.8-.7-.4-.5-.7-1.2-.7-2v-.1c0-.8.2-1.5.7-2 .4-.5 1-.7 1.8-.7.7 0 1.2.2 1.6.6.4.4.6.9.6 1.5h-1.3c0-.3-.1-.5-.3-.7-.2-.2-.4-.3-.7-.3-.3 0-.6.1-.8.4-.2.2-.3.6-.3 1.2v.1c0 .6.1 1 .3 1.2s.5.3.9.3zM70.9 21.4h-1.4v-7.6h1.4v7.6zM75.2 21.4c-.1-.1-.1-.3-.1-.5-.3.4-.8.6-1.4.6-.5 0-1-.2-1.3-.5-.3-.3-.5-.7-.5-1.2 0-.6.2-1 .6-1.3.4-.3 1-.5 1.8-.5h.7v-.3c0-.2-.1-.4-.2-.6-.1-.1-.3-.2-.6-.2-.2 0-.4.1-.6.2-.1.1-.2.3-.2.5H72c0-.3.1-.6.3-.9.2-.3.5-.5.8-.6s.7-.2 1.2-.2c.7 0 1.2.2 1.6.5.4.3.6.8.6 1.4v2.3c0 .5.1.9.2 1.2v.1h-1.5zm-1.1-1c.2 0 .4 0 .6-.1.2-.1.3-.2.4-.4V19h-.5c-.7 0-1.1.2-1.1.7v.1c0 .2.1.3.2.4 0 .2.1.2.4.2zM78.9 16v.6c.4-.5.9-.7 1.5-.7.7 0 1.2.3 1.4.8.4-.5.9-.8 1.6-.8.6 0 1 .2 1.3.5s.4.9.4 1.5v3.4h-1.4V18c0-.3-.1-.5-.2-.7-.1-.1-.3-.2-.6-.2-.4 0-.7.2-.9.6v3.7h-1.4V18c0-.3-.1-.5-.2-.7-.1-.1-.3-.2-.6-.2-.4 0-.7.2-.9.5v3.8h-1.4V16h1.4zM88.9 21.5c-.8 0-1.4-.2-1.9-.7-.5-.5-.7-1.1-.7-1.9v-.1c0-.5.1-1 .3-1.4.2-.4.5-.8.9-1 .4-.2.8-.3 1.3-.3.7 0 1.3.2 1.7.7.4.5.6 1.1.6 2v.6h-3.4c0 .4.2.6.4.8.2.2.5.3.9.3.6 0 1-.2 1.3-.6l.7.8c-.2.3-.5.5-.9.7-.4 0-.8.1-1.2.1zm-.2-4.4c-.3 0-.5.1-.7.3-.2.2-.3.5-.3.8h2v-.1c0-.3-.1-.6-.3-.7-.2-.2-.4-.3-.7-.3z" class="st1"></path>
    </g>
</svg>