<svg xmlns="http://www.w3.org/2000/svg" width="516" height="516" viewBox="0 0 516 516">
    <style>
        .logo_top0 {
            fill: none;
        }

        .logo_top1 {
            fill: #ffffff;
        }

        .logo_top2 {
            fill: #00BEA0;
        }

        .logo_top3 {
            fill: #FFE100;
        }

        .logo_top4 {
            fill: #4646FF;
        }

        .logo_top5 {
            fill: #8200BE;
        }
    </style>
    <defs>
        <path id="logoWirl"
              d="M227.9 461.3c-.7 0-1.4 0-2.1-.1-13.6-.7-26.3-7.7-34.1-18.9-2.7-3.8-4.4-7.7-6-11-1-2.3-2-4.4-3-5.9-2.4-3.5-7.3-5.7-11.5-5-4.2.7-8.2 4.2-9.4 8.3l-31.9-9.2c4.7-16.4 19.3-29.2 36.1-31.9 16.9-2.7 34.6 5 44.2 19.2 2.5 3.7 4.2 7.4 5.7 10.6 1.1 2.3 2.1 4.5 3.1 6 1.8 2.6 5.2 4.5 8.4 4.6 3.2.1 6.7-1.4 8.8-3.8 1.5-1.8 3-4.7 4.5-7.7 2.3-4.5 4.8-9.5 8.9-14.3 8.3-9.7 20.9-15.5 33.8-15.3 12.8.1 25.3 6.1 33.4 16 3.8 4.6 6.2 9.4 8.3 13.6 1.4 2.9 2.8 5.5 4.2 7.3 2.5 3.1 7.2 4.8 11.1 4 3.9-.8 7.6-4.2 8.6-8.1l32 8.9c-4.4 16-17.7 28.4-34 31.8-16.2 3.3-33.4-2.8-43.8-15.7-3.6-4.5-5.9-9.1-8-13.2-1.5-2.9-2.8-5.6-4.2-7.3-1.9-2.3-5.1-3.8-8.1-3.9h-.1c-3 0-6.1 1.5-8.1 3.7-1.5 1.8-3 4.7-4.6 7.7-2.2 4.4-4.8 9.4-8.8 14.2-8.1 9.7-20.6 15.4-33.4 15.4z"
              class="logo_top3"/>
        <path id="logoZigzag"
              d="M272.1 462.3l-33.3-34.5-33.2 34.5-33.3-34.5-15.3 15.9-22.6-21.8 37.9-39.4 33.3 34.5 33.2-34.5 33.3 34.5 33.2-34.5 33.3 34.5 15.3-15.9 22.6 21.8-37.9 39.4-33.3-34.5z"
              class="logo_top4"/>
        <path id="logoArch"
              d="M255.4 457.3c-44.4 0-87.4-15.9-121.1-44.7L157 386c27.4 23.4 62.4 36.3 98.4 36.3 36 0 71-12.9 98.4-36.3l22.7 26.6c-33.7 28.8-76.7 44.7-121.1 44.7z"
              class="logo_top2"/>
    </defs>
    <path id="BG_1_" d="M0 0h516v516H0z" class="logo_top0"/>
    <path id="zbase_1_" d="M365.2 283.9H222.5l142.7-168.6V79.6H145.9V127h141l-141 165.9v38.5h219.3z" class="logo_top1"/>



    <path id="logoStripe" d="M145.7 405.5h219.5v36.7H145.7z" class="logo_top5"/>
</svg>